<?xml version="1.0" encoding="UTF-8"?>
<!DOCTYPE svg PUBLIC "-//W3C//DTD SVG 1.1//EN" "http://www.w3.org/Graphics/SVG/1.1/DTD/svg11.dtd">
<svg xmlns="http://www.w3.org/2000/svg" version="1.1" width="64px" height="64px" style="shape-rendering:geometricPrecision; text-rendering:geometricPrecision; image-rendering:optimizeQuality; fill-rule:evenodd; clip-rule:evenodd" xmlns:xlink="http://www.w3.org/1999/xlink">
<g><path style="opacity:0.835" fill="#fefffe" d="M 27.5,9.5 C 45.3125,9.14503 53.8125,17.8117 53,35.5C 50.972,43.5541 46.1386,49.2208 38.5,52.5C 37.914,52.2907 37.414,51.9574 37,51.5C 36.5804,47.8086 36.0804,44.1419 35.5,40.5C 42.8275,39.1905 45.6608,34.8571 44,27.5C 43.0615,24.8791 42.2281,22.2125 41.5,19.5C 39.941,20.4465 38.2743,21.1132 36.5,21.5C 33.1667,20.1667 29.8333,20.1667 26.5,21.5C 24.7257,21.1132 23.059,20.4465 21.5,19.5C 19.4129,24.3217 18.5795,29.3217 19,34.5C 20.605,38.2759 23.4384,40.2759 27.5,40.5C 27.2204,44.2253 25.2204,45.392 21.5,44C 20.5736,42.4202 19.5736,41.9202 18.5,42.5C 20.1091,45.8936 22.7757,47.2269 26.5,46.5C 26.9492,48.9775 26.2825,50.9775 24.5,52.5C 8.8387,43.8569 5.67203,31.8569 15,16.5C 18.7386,13.2185 22.9053,10.8852 27.5,9.5 Z"/></g>
</svg>
