<svg width="1346" height="992" viewBox="0 0 1346 992" fill="none" xmlns="http://www.w3.org/2000/svg">
<g id="logo">
<path id="logo-leters" d="M148.171 455.174C148.171 549.203 238.285 663.76 373.455 661.676C441.041 660.635 497.362 632.471 531.154 601.184C587.475 549.036 694.218 293.065 733.91 204.865C790.232 79.7119 970.459 79.7116 1049.31 204.865C1110.7 302.309 1263.33 580.327 1319.65 684.621C1375.97 778.483 1263.33 830.63 1207.01 747.195C1150.69 684.618 1004.9 395.306 936.666 288.3C902.874 257.012 880.345 257.012 846.553 288.3C812.76 319.588 733.166 601.183 643.797 684.618C565.597 757.624 474.833 788.916 373.455 788.916C125.642 788.916 13 633.734 13 455.174C13 288.303 125.642 121.429 373.455 121.432C486.097 121.433 486.716 246.585 373.455 246.585C227.02 246.585 148.171 362.413 148.171 455.174Z" fill="url(#paint0_linear_8_30)"/>
</g>
<defs>
<linearGradient id="paint0_linear_8_30" x1="674" y1="111" x2="674" y2="789" gradientUnits="userSpaceOnUse">
<stop stop-color="#728BCB"/>
<stop offset="1" stop-color="#11151E"/>
</linearGradient>
</defs>
</svg>
