<?xml version="1.0" encoding="UTF-8"?>
<!DOCTYPE svg PUBLIC "-//W3C//DTD SVG 1.1//EN" "http://www.w3.org/Graphics/SVG/1.1/DTD/svg11.dtd">
<svg height="96px"
     style="shape-rendering:geometricPrecision; text-rendering:geometricPrecision; image-rendering:optimizeQuality; fill-rule:evenodd; clip-rule:evenodd"
     version="1.1" width="96px"
     xmlns="http://www.w3.org/2000/svg">
<g><path style="opacity:0.994" fill="#151c24" d="M 16.5,11.5 C 37.1694,11.3334 57.836,11.5 78.5,12C 80.3333,13.1667 81.8333,14.6667 83,16.5C 83.6667,37.1667 83.6667,57.8333 83,78.5C 81.8333,80.3333 80.3333,81.8333 78.5,83C 57.8333,83.6667 37.1667,83.6667 16.5,83C 14.6667,81.8333 13.1667,80.3333 12,78.5C 11.3333,57.8333 11.3333,37.1667 12,16.5C 13.3657,14.6383 14.8657,12.9717 16.5,11.5 Z"/></g>
<g><path style="opacity:1" fill="#f3f3f4" d="M 32.5,24.5 C 33.7143,27.1293 33.7143,29.796 32.5,32.5C 27.3657,34.9287 24.3657,33.4287 23.5,28C 23.4393,26.2894 24.1059,24.956 25.5,24C 27.8848,23.4436 30.2181,23.6103 32.5,24.5 Z"/></g>
<g><path style="opacity:1" fill="#252c33" d="M 32.5,24.5 C 30.2181,23.6103 27.8848,23.4436 25.5,24C 24.1059,24.956 23.4393,26.2894 23.5,28C 24.3657,33.4287 27.3657,34.9287 32.5,32.5C 31.4331,34.8795 32.4331,35.8795 35.5,35.5C 35.5,48.1667 35.5,60.8333 35.5,73.5C 30.8333,73.5 26.1667,73.5 21.5,73.5C 21.5,60.8333 21.5,48.1667 21.5,35.5C 22.8734,35.6567 24.2068,35.49 25.5,35C 21.8748,32.7937 20.7081,29.627 22,25.5C 25.3965,20.6993 28.8965,20.366 32.5,24.5 Z"/></g>
<g><path style="opacity:1" fill="#272d34" d="M 37.5,35.5 C 42.6483,34.9264 47.4816,35.593 52,37.5C 57.7716,35.9952 63.4383,36.3285 69,38.5C 70.5862,40.6705 71.9196,43.0038 73,45.5C 73.4998,54.8274 73.6665,64.1607 73.5,73.5C 68.8333,73.5 64.1667,73.5 59.5,73.5C 59.831,65.4723 59.4977,57.4723 58.5,49.5C 56.2984,48.2203 54.1317,48.2203 52,49.5C 51.5003,57.4931 51.3336,65.4931 51.5,73.5C 46.8333,73.5 42.1667,73.5 37.5,73.5C 37.5,60.8333 37.5,48.1667 37.5,35.5 Z"/></g>
<g><path style="opacity:1" fill="#fefffe" d="M 23.5,37.5 C 26.8333,37.5 30.1667,37.5 33.5,37.5C 33.5,48.8333 33.5,60.1667 33.5,71.5C 30.1667,71.5 26.8333,71.5 23.5,71.5C 23.5,60.1667 23.5,48.8333 23.5,37.5 Z"/></g>
<g><path style="opacity:1" fill="#fcfcfc" d="M 39.5,37.5 C 42.8333,37.5 46.1667,37.5 49.5,37.5C 49.3433,38.8734 49.51,40.2068 50,41.5C 56.5856,36.0288 62.919,36.3621 69,42.5C 69.6667,43.8333 70.3333,45.1667 71,46.5C 71.4997,54.8267 71.6664,63.16 71.5,71.5C 68.1667,71.5 64.8333,71.5 61.5,71.5C 61.6663,64.1591 61.4997,56.8258 61,49.5C 58.4406,46.6508 55.2739,45.8175 51.5,47C 50.8742,47.7504 50.3742,48.5838 50,49.5C 49.5003,56.8258 49.3337,64.1591 49.5,71.5C 46.1667,71.5 42.8333,71.5 39.5,71.5C 39.5,60.1667 39.5,48.8333 39.5,37.5 Z"/></g>
</svg>
