<svg width="4340" height="2437" viewBox="0 0 4340 2437" fill="none" xmlns="http://www.w3.org/2000/svg">
<g id="programming" clip-path="url(#clip0_20_451)">
<g id="screen-container">
<path id="screen" d="M4340 0H0V1952H4340V0Z" fill="#252932"/>
<path id="Vector" d="M982.722 262.32H944.451V313.504H982.722V262.32Z" fill="#5900CB"/>
<path id="Vector_2" d="M1051.61 262.32H1013.34V313.504H1051.61V262.32Z" fill="#5900CB"/>
<path id="Vector_3" d="M1051.61 415.873H1013.34V467.057H1051.61V415.873Z" fill="#5900CB"/>
<path id="Vector_4" d="M1128.15 339.097H1089.88V390.281H1128.15V339.097Z" fill="#5900CB"/>
<path id="Vector_5" d="M1128.15 422.271H1089.88V473.456H1128.15V422.271Z" fill="#5900CB"/>
<path id="Vector_6" d="M1051.61 582.223H1013.34V633.407H1051.61V582.223Z" fill="#5900CB"/>
<path id="Vector_7" d="M1128.15 665.397H1089.88V716.582H1128.15V665.397Z" fill="#5900CB"/>
<path id="Vector_8" d="M1051.61 978.899H1013.34V1030.08H1051.61V978.899Z" fill="#5900CB"/>
<path id="Vector_9" d="M982.722 665.397H944.451V716.582H982.722V665.397Z" fill="#5900CB"/>
<path id="Vector_10" d="M852.6 358.29H814.329V409.474H852.6V358.29Z" fill="#5900CB"/>
<path id="Vector_11" d="M852.6 1158.05H814.329V1209.23H852.6V1158.05Z" fill="#5900CB"/>
<path id="Vector_12" d="M852.6 1324.39H814.329V1375.58H852.6V1324.39Z" fill="#5900CB"/>
<path id="Vector_13" d="M852.6 1407.57H814.329V1458.75H852.6V1407.57Z" fill="#5900CB"/>
<path id="Vector_14" d="M852.6 447.863H799.02V454.261H852.6V447.863Z" fill="#5900CB"/>
<path id="Vector_15" d="M1059.27 524.64H1005.69V531.038H1059.27V524.64Z" fill="#5900CB"/>
<path id="Vector_16" d="M853 67.8091H815V72.3297H853V67.8091Z" fill="#5900CB"/>
<path id="Vector_17" d="M852.6 857.337H799.02V863.735H852.6V857.337Z" fill="#5900CB"/>
<path id="Vector_18" d="M852.6 927.716H799.02V934.114H852.6V927.716Z" fill="#5900CB"/>
<path id="Vector_19" d="M1059.27 1337.19H1005.69V1343.59H1059.27V1337.19Z" fill="#5900CB"/>
<path id="Vector_20" d="M998.031 1490.74H944.451V1497.14H998.031V1490.74Z" fill="#5900CB"/>
<path id="Vector_21" d="M814.329 505.448V518.243H829.635V543.835H814.329V556.63H852.6V505.448H814.329Z" fill="#5900CB"/>
<path id="Vector_22" d="M944.454 415.875V428.67H959.76V454.263H944.454V467.057H982.725V415.875H944.454Z" fill="#5900CB"/>
<path id="Vector_23" d="M1089.88 499.047V511.846H1105.19V537.439H1089.88V550.233H1128.16V499.047H1089.88Z" fill="#5900CB"/>
<path id="Vector_24" d="M1089.88 748.573V761.368H1105.19V786.96H1089.88V799.755H1128.16V748.573H1089.88Z" fill="#5900CB"/>
<path id="Vector_25" d="M1089.88 831.744V844.543H1105.19V870.135H1089.88V882.93H1128.16V831.744H1089.88Z" fill="#5900CB"/>
<path id="Vector_26" d="M1089.88 575.825V588.619H1105.19V614.212H1089.88V627.01H1128.16V575.825H1089.88Z" fill="#5900CB"/>
<path id="Vector_27" d="M1013.34 339.097V351.895H1028.65V377.484H1013.34V390.282H1051.61V339.097H1013.34Z" fill="#5900CB"/>
<path id="Vector_28" d="M1051.61 748.572H1013.34V799.756H1051.61V748.572Z" fill="#5900CB"/>
<path id="Vector_29" d="M1051.61 902.123H1013.34V953.307H1051.61V902.123Z" fill="#5900CB"/>
<path id="Vector_30" d="M1013.34 825.348V838.142H1028.65V863.735H1013.34V876.533H1051.61V825.348H1013.34Z" fill="#5900CB"/>
<path id="Vector_31" d="M944.454 499.047V511.846H959.76V537.439H944.454V550.233H982.725V499.047H944.454Z" fill="#5900CB"/>
<path id="Vector_32" d="M944.454 582.223V595.021H959.76V620.61H944.454V633.408H982.725V582.223H944.454Z" fill="#5900CB"/>
<path id="Vector_33" d="M982.722 831.746H944.451V882.93H982.722V831.746Z" fill="#5900CB"/>
<path id="Vector_34" d="M944.454 748.573V761.368H959.76V786.96H944.454V799.755H982.725V748.573H944.454Z" fill="#5900CB"/>
<path id="Vector_35" d="M982.722 998.095H944.451V1049.28H982.722V998.095Z" fill="#5900CB"/>
<path id="Vector_36" d="M944.454 914.92V927.714H959.76V953.307H944.454V966.106H982.725V914.92H944.454Z" fill="#5900CB"/>
<path id="Vector_37" d="M982.722 1164.44H944.451V1215.63H982.722V1164.44Z" fill="#5900CB"/>
<path id="Vector_38" d="M1051.61 1151.65H1013.34V1202.83H1051.61V1151.65Z" fill="#5900CB"/>
<path id="Vector_39" d="M944.454 1081.27V1094.07H959.76V1119.66H944.454V1132.45H982.725V1081.27H944.454Z" fill="#5900CB"/>
<path id="Vector_40" d="M1089.88 1081.27V1094.07H1105.19V1119.66H1089.88V1132.45H1128.16V1081.27H1089.88Z" fill="#5900CB"/>
<path id="Vector_41" d="M1518.53 339.097H1480.25V390.281H1518.53V339.097Z" fill="#5900CB"/>
<path id="Vector_42" d="M1518.53 422.271H1480.25V473.456H1518.53V422.271Z" fill="#5900CB"/>
<path id="Vector_43" d="M1518.53 665.397H1480.25V716.582H1518.53V665.397Z" fill="#5900CB"/>
<path id="Vector_44" d="M1480.25 499.047V511.846H1495.56V537.439H1480.25V550.233H1518.52V499.047H1480.25Z" fill="#5900CB"/>
<path id="Vector_45" d="M1480.25 748.573V761.368H1495.56V786.96H1480.25V799.755H1518.52V748.573H1480.25Z" fill="#5900CB"/>
<path id="Vector_46" d="M1480.25 831.744V844.543H1495.56V870.135H1480.25V882.93H1518.52V831.744H1480.25Z" fill="#5900CB"/>
<path id="Vector_47" d="M1480.25 575.825V588.619H1495.56V614.212H1480.25V627.01H1518.52V575.825H1480.25Z" fill="#5900CB"/>
<path id="Vector_48" d="M1480.25 1081.27V1094.07H1495.56V1119.66H1480.25V1132.45H1518.52V1081.27H1480.25Z" fill="#5900CB"/>
<path id="Vector_49" d="M982.722 1330.79H944.451V1381.98H982.722V1330.79Z" fill="#5900CB"/>
<path id="Vector_50" d="M1051.61 1234.82H1013.34V1286.01H1051.61V1234.82Z" fill="#5900CB"/>
<path id="Vector_51" d="M982.722 1548.33H944.451V1599.51H982.722V1548.33Z" fill="#5900CB"/>
<path id="Vector_52" d="M1051.61 1394.77H1013.34V1445.96H1051.61V1394.77Z" fill="#5900CB"/>
<path id="Vector_53" d="M944.454 1247.62V1260.41H959.76V1286.01H944.454V1298.8H982.725V1247.62H944.454Z" fill="#5900CB"/>
<path id="Vector_54" d="M944.454 1637.9V1650.69H959.76V1676.29H944.454V1689.08H982.725V1637.9H944.454Z" fill="#5900CB"/>
<path id="Vector_55" d="M1403.71 262.32H1365.44V313.504H1403.71V262.32Z" fill="#5900CB"/>
<path id="Vector_56" d="M1403.71 665.397H1365.44V716.582H1403.71V665.397Z" fill="#5900CB"/>
<path id="Vector_57" d="M1419.02 1490.74H1365.44V1497.14H1419.02V1490.74Z" fill="#5900CB"/>
<path id="Vector_58" d="M1365.44 415.875V428.67H1380.75V454.263H1365.44V467.057H1403.71V415.875H1365.44Z" fill="#5900CB"/>
<path id="Vector_59" d="M1365.44 499.047V511.846H1380.75V537.439H1365.44V550.233H1403.71V499.047H1365.44Z" fill="#5900CB"/>
<path id="Vector_60" d="M1365.44 582.223V595.021H1380.75V620.61H1365.44V633.408H1403.71V582.223H1365.44Z" fill="#5900CB"/>
<path id="Vector_61" d="M1403.71 831.746H1365.44V882.93H1403.71V831.746Z" fill="#5900CB"/>
<path id="Vector_62" d="M1365.44 748.573V761.368H1380.75V786.96H1365.44V799.755H1403.71V748.573H1365.44Z" fill="#5900CB"/>
<path id="Vector_63" d="M1403.71 998.095H1365.44V1049.28H1403.71V998.095Z" fill="#5900CB"/>
<path id="Vector_64" d="M1365.44 914.92V927.714H1380.75V953.307H1365.44V966.106H1403.71V914.92H1365.44Z" fill="#5900CB"/>
<path id="Vector_65" d="M1403.71 1164.44H1365.44V1215.63H1403.71V1164.44Z" fill="#5900CB"/>
<path id="Vector_66" d="M1365.44 1081.27V1094.07H1380.75V1119.66H1365.44V1132.45H1403.71V1081.27H1365.44Z" fill="#5900CB"/>
<path id="Vector_67" d="M1403.71 1330.79H1365.44V1381.98H1403.71V1330.79Z" fill="#5900CB"/>
<path id="Vector_68" d="M1403.71 1548.33H1365.44V1599.51H1403.71V1548.33Z" fill="#5900CB"/>
<path id="Vector_69" d="M1365.44 1247.62V1260.41H1380.75V1286.01H1365.44V1298.8H1403.71V1247.62H1365.44Z" fill="#5900CB"/>
<path id="Vector_70" d="M1365.44 1637.9V1650.69H1380.75V1676.29H1365.44V1689.08H1403.71V1637.9H1365.44Z" fill="#5900CB"/>
<path id="Vector_71" d="M1587.41 262.32H1549.14V313.504H1587.41V262.32Z" fill="#5900CB"/>
<path id="Vector_72" d="M1587.41 665.397H1549.14V716.582H1587.41V665.397Z" fill="#5900CB"/>
<path id="Vector_73" d="M1602.72 1490.74H1549.14V1497.14H1602.72V1490.74Z" fill="#5900CB"/>
<path id="Vector_74" d="M1549.14 415.875V428.67H1564.45V454.263H1549.14V467.057H1587.41V415.875H1549.14Z" fill="#5900CB"/>
<path id="Vector_75" d="M1549.14 499.047V511.846H1564.45V537.439H1549.14V550.233H1587.41V499.047H1549.14Z" fill="#5900CB"/>
<path id="Vector_76" d="M1549.14 582.223V595.021H1564.45V620.61H1549.14V633.408H1587.41V582.223H1549.14Z" fill="#5900CB"/>
<path id="Vector_77" d="M1587.41 831.746H1549.14V882.93H1587.41V831.746Z" fill="#5900CB"/>
<path id="Vector_78" d="M1549.14 748.573V761.368H1564.45V786.96H1549.14V799.755H1587.41V748.573H1549.14Z" fill="#5900CB"/>
<path id="Vector_79" d="M1587.41 998.095H1549.14V1049.28H1587.41V998.095Z" fill="#5900CB"/>
<path id="Vector_80" d="M1549.14 914.92V927.714H1564.45V953.307H1549.14V966.106H1587.41V914.92H1549.14Z" fill="#5900CB"/>
<path id="Vector_81" d="M1587.41 1164.44H1549.14V1215.63H1587.41V1164.44Z" fill="#5900CB"/>
<path id="Vector_82" d="M1549.14 1081.27V1094.07H1564.45V1119.66H1549.14V1132.45H1587.41V1081.27H1549.14Z" fill="#5900CB"/>
<path id="Vector_83" d="M1587.41 1330.79H1549.14V1381.98H1587.41V1330.79Z" fill="#5900CB"/>
<path id="Vector_84" d="M1587.41 1548.33H1549.14V1599.51H1587.41V1548.33Z" fill="#5900CB"/>
<path id="Vector_85" d="M1549.14 1247.62V1260.41H1564.45V1286.01H1549.14V1298.8H1587.41V1247.62H1549.14Z" fill="#5900CB"/>
<path id="Vector_86" d="M1549.14 1637.9V1650.69H1564.45V1676.29H1549.14V1689.08H1587.41V1637.9H1549.14Z" fill="#5900CB"/>
<path id="Vector_87" d="M1013.34 1548.33V1561.12H1028.65V1586.71H1013.34V1599.51H1051.61V1548.33H1013.34Z" fill="#5900CB"/>
<path id="Vector_88" d="M1013.34 1631.5V1644.3H1028.65V1669.89H1013.34V1682.68H1051.61V1631.5H1013.34Z" fill="#5900CB"/>
<path id="Vector_89" d="M814.329 665.397V678.192H829.635V703.785H814.329V716.583H852.6V665.397H814.329Z" fill="#5900CB"/>
<path id="Vector_90" d="M814.329 991.699V1004.49H829.635V1030.09H814.329V1042.88H852.6V991.699H814.329Z" fill="#5900CB"/>
<path id="Vector_91" d="M814.329 1074.87V1087.67H829.635V1113.26H814.329V1126.06H852.6V1074.87H814.329Z" fill="#5900CB"/>
<path id="Vector_92" d="M814.329 1241.22V1254.02H829.635V1279.61H814.329V1292.4H852.6V1241.22H814.329Z" fill="#5900CB"/>
<path id="Vector_93" d="M814.329 1477.94V1490.74H829.635V1516.34H814.329V1529.13H852.6V1477.94H814.329Z" fill="#5900CB"/>
<path id="Vector_94" d="M814.329 1548.33V1561.12H829.635V1586.71H814.329V1599.51H852.6V1548.33H814.329Z" fill="#5900CB"/>
<path id="Vector_95" d="M1250.62 275.115H1212.35V326.3H1250.62V275.115Z" fill="#5900CB"/>
<path id="Vector_96" d="M1250.62 358.29H1212.35V409.474H1250.62V358.29Z" fill="#5900CB"/>
<path id="Vector_97" d="M1250.62 447.863H1197.04V454.261H1250.62V447.863Z" fill="#5900CB"/>
<path id="Vector_98" d="M1250.62 857.337H1197.04V863.735H1250.62V857.337Z" fill="#5900CB"/>
<path id="Vector_99" d="M1250.62 927.716H1197.04V934.114H1250.62V927.716Z" fill="#5900CB"/>
<path id="Vector_100" d="M1212.35 505.448V518.243H1227.66V543.835H1212.35V556.63H1250.62V505.448H1212.35Z" fill="#5900CB"/>
<path id="Vector_101" d="M1212.35 665.397V678.192H1227.66V703.785H1212.35V716.583H1250.62V665.397H1212.35Z" fill="#5900CB"/>
<path id="Vector_102" d="M1212.35 991.699V1004.49H1227.66V1030.09H1212.35V1042.88H1250.62V991.699H1212.35Z" fill="#5900CB"/>
<path id="Vector_103" d="M1686.92 831.746H1648.65V882.93H1686.92V831.746Z" fill="#5900CB"/>
<path id="Vector_104" d="M1686.92 914.92H1648.65V966.104H1686.92V914.92Z" fill="#5900CB"/>
<path id="Vector_105" d="M1686.92 1004.49H1633.34V1010.89H1686.92V1004.49Z" fill="#5900CB"/>
<path id="Vector_106" d="M1686.92 1413.97H1633.34V1420.36H1686.92V1413.97Z" fill="#5900CB"/>
<path id="Vector_107" d="M1686.92 1484.34H1633.34V1490.74H1686.92V1484.34Z" fill="#5900CB"/>
<path id="Vector_108" d="M1648.65 1062.08V1074.87H1663.96V1100.46H1648.65V1113.26H1686.92V1062.08H1648.65Z" fill="#5900CB"/>
<path id="Vector_109" d="M1648.65 1222.02V1234.82H1663.96V1260.41H1648.65V1273.21H1686.92V1222.02H1648.65Z" fill="#5900CB"/>
<path id="Vector_110" d="M1648.65 1548.33V1561.12H1663.96V1586.71H1648.65V1599.51H1686.92V1548.33H1648.65Z" fill="#5900CB"/>
<path id="Vector_111" d="M1809.39 275.115H1771.12V326.3H1809.39V275.115Z" fill="#5900CB"/>
<path id="Vector_112" d="M1939.51 262.32H1901.24V313.504H1939.51V262.32Z" fill="#5900CB"/>
<path id="Vector_113" d="M2008.4 262.32H1970.13V313.504H2008.4V262.32Z" fill="#5900CB"/>
<path id="Vector_114" d="M2008.4 415.873H1970.13V467.057H2008.4V415.873Z" fill="#5900CB"/>
<path id="Vector_115" d="M2084.94 339.097H2046.67V390.281H2084.94V339.097Z" fill="#5900CB"/>
<path id="Vector_116" d="M2084.94 422.271H2046.67V473.456H2084.94V422.271Z" fill="#5900CB"/>
<path id="Vector_117" d="M2008.4 582.223H1970.13V633.407H2008.4V582.223Z" fill="#5900CB"/>
<path id="Vector_118" d="M2084.94 665.397H2046.67V716.582H2084.94V665.397Z" fill="#5900CB"/>
<path id="Vector_119" d="M2008.4 978.899H1970.13V1030.08H2008.4V978.899Z" fill="#5900CB"/>
<path id="Vector_120" d="M1939.51 665.397H1901.24V716.582H1939.51V665.397Z" fill="#5900CB"/>
<path id="Vector_121" d="M1809.39 358.29H1771.12V409.474H1809.39V358.29Z" fill="#5900CB"/>
<path id="Vector_122" d="M1809.39 1158.05H1771.12V1209.23H1809.39V1158.05Z" fill="#5900CB"/>
<path id="Vector_123" d="M1809.39 1324.39H1771.12V1375.58H1809.39V1324.39Z" fill="#5900CB"/>
<path id="Vector_124" d="M1809.39 1407.57H1771.12V1458.75H1809.39V1407.57Z" fill="#5900CB"/>
<path id="Vector_125" d="M1809.39 447.863H1755.81V454.261H1809.39V447.863Z" fill="#5900CB"/>
<path id="Vector_126" d="M2016.06 524.64H1962.48V531.038H2016.06V524.64Z" fill="#5900CB"/>
<path id="Vector_127" d="M1809.39 857.337H1755.81V863.735H1809.39V857.337Z" fill="#5900CB"/>
<path id="Vector_128" d="M1809.39 927.716H1755.81V934.114H1809.39V927.716Z" fill="#5900CB"/>
<path id="Vector_129" d="M2016.06 1337.19H1962.48V1343.59H2016.06V1337.19Z" fill="#5900CB"/>
<path id="Vector_130" d="M1954.82 1490.74H1901.24V1497.14H1954.82V1490.74Z" fill="#5900CB"/>
<path id="Vector_131" d="M1771.12 505.448V518.243H1786.43V543.835H1771.12V556.63H1809.39V505.448H1771.12Z" fill="#5900CB"/>
<path id="Vector_132" d="M1901.24 415.875V428.67H1916.55V454.263H1901.24V467.057H1939.51V415.875H1901.24Z" fill="#5900CB"/>
<path id="Vector_133" d="M2046.67 499.047V511.846H2061.98V537.439H2046.67V550.233H2084.94V499.047H2046.67Z" fill="#5900CB"/>
<path id="Vector_134" d="M2046.67 748.573V761.368H2061.98V786.96H2046.67V799.755H2084.94V748.573H2046.67Z" fill="#5900CB"/>
<path id="Vector_135" d="M2046.67 831.744V844.543H2061.98V870.135H2046.67V882.93H2084.94V831.744H2046.67Z" fill="#5900CB"/>
<path id="Vector_136" d="M2046.67 575.825V588.619H2061.98V614.212H2046.67V627.01H2084.94V575.825H2046.67Z" fill="#5900CB"/>
<path id="Vector_137" d="M1970.13 339.097V351.895H1985.44V377.484H1970.13V390.282H2008.4V339.097H1970.13Z" fill="#5900CB"/>
<path id="Vector_138" d="M2008.4 748.572H1970.13V799.756H2008.4V748.572Z" fill="#5900CB"/>
<path id="Vector_139" d="M2008.4 902.123H1970.13V953.307H2008.4V902.123Z" fill="#5900CB"/>
<path id="Vector_140" d="M1970.13 825.348V838.142H1985.44V863.735H1970.13V876.533H2008.4V825.348H1970.13Z" fill="#5900CB"/>
<path id="Vector_141" d="M1901.24 499.047V511.846H1916.55V537.439H1901.24V550.233H1939.51V499.047H1901.24Z" fill="#5900CB"/>
<path id="Vector_142" d="M1901.24 582.223V595.021H1916.55V620.61H1901.24V633.408H1939.51V582.223H1901.24Z" fill="#5900CB"/>
<path id="Vector_143" d="M1939.51 831.746H1901.24V882.93H1939.51V831.746Z" fill="#5900CB"/>
<path id="Vector_144" d="M1901.24 748.573V761.368H1916.55V786.96H1901.24V799.755H1939.51V748.573H1901.24Z" fill="#5900CB"/>
<path id="Vector_145" d="M1939.51 998.095H1901.24V1049.28H1939.51V998.095Z" fill="#5900CB"/>
<path id="Vector_146" d="M1901.24 914.92V927.714H1916.55V953.307H1901.24V966.106H1939.51V914.92H1901.24Z" fill="#5900CB"/>
<path id="Vector_147" d="M1939.51 1164.44H1901.24V1215.63H1939.51V1164.44Z" fill="#5900CB"/>
<path id="Vector_148" d="M2008.4 1151.65H1970.13V1202.83H2008.4V1151.65Z" fill="#5900CB"/>
<path id="Vector_149" d="M1901.24 1081.27V1094.07H1916.55V1119.66H1901.24V1132.45H1939.51V1081.27H1901.24Z" fill="#5900CB"/>
<path id="Vector_150" d="M2046.67 1081.27V1094.07H2061.98V1119.66H2046.67V1132.45H2084.94V1081.27H2046.67Z" fill="#5900CB"/>
<path id="Vector_151" d="M2475.31 339.097H2437.04V390.281H2475.31V339.097Z" fill="#5900CB"/>
<path id="Vector_152" d="M2475.31 422.271H2437.04V473.456H2475.31V422.271Z" fill="#5900CB"/>
<path id="Vector_153" d="M2475.31 665.397H2437.04V716.582H2475.31V665.397Z" fill="#5900CB"/>
<path id="Vector_154" d="M2437.04 499.047V511.846H2452.35V537.439H2437.04V550.233H2475.32V499.047H2437.04Z" fill="#5900CB"/>
<path id="Vector_155" d="M2437.04 748.573V761.368H2452.35V786.96H2437.04V799.755H2475.32V748.573H2437.04Z" fill="#5900CB"/>
<path id="Vector_156" d="M2437.04 831.744V844.543H2452.35V870.135H2437.04V882.93H2475.32V831.744H2437.04Z" fill="#5900CB"/>
<path id="Vector_157" d="M2437.04 575.825V588.619H2452.35V614.212H2437.04V627.01H2475.32V575.825H2437.04Z" fill="#5900CB"/>
<path id="Vector_158" d="M2437.04 1081.27V1094.07H2452.35V1119.66H2437.04V1132.45H2475.32V1081.27H2437.04Z" fill="#5900CB"/>
<path id="Vector_159" d="M1939.51 1330.79H1901.24V1381.98H1939.51V1330.79Z" fill="#5900CB"/>
<path id="Vector_160" d="M2008.4 1234.82H1970.13V1286.01H2008.4V1234.82Z" fill="#5900CB"/>
<path id="Vector_161" d="M1939.51 1548.33H1901.24V1599.51H1939.51V1548.33Z" fill="#5900CB"/>
<path id="Vector_162" d="M2008.4 1394.77H1970.13V1445.96H2008.4V1394.77Z" fill="#5900CB"/>
<path id="Vector_163" d="M1901.24 1247.62V1260.41H1916.55V1286.01H1901.24V1298.8H1939.51V1247.62H1901.24Z" fill="#5900CB"/>
<path id="Vector_164" d="M1901.24 1637.9V1650.69H1916.55V1676.29H1901.24V1689.08H1939.51V1637.9H1901.24Z" fill="#5900CB"/>
<path id="Vector_165" d="M2360.5 262.32H2322.23V313.504H2360.5V262.32Z" fill="#5900CB"/>
<path id="Vector_166" d="M2360.5 665.397H2322.23V716.582H2360.5V665.397Z" fill="#5900CB"/>
<path id="Vector_167" d="M2375.81 1490.74H2322.23V1497.14H2375.81V1490.74Z" fill="#5900CB"/>
<path id="Vector_168" d="M2322.23 415.875V428.67H2337.54V454.263H2322.23V467.057H2360.5V415.875H2322.23Z" fill="#5900CB"/>
<path id="Vector_169" d="M2322.23 499.047V511.846H2337.54V537.439H2322.23V550.233H2360.5V499.047H2322.23Z" fill="#5900CB"/>
<path id="Vector_170" d="M2322.23 582.223V595.021H2337.54V620.61H2322.23V633.408H2360.5V582.223H2322.23Z" fill="#5900CB"/>
<path id="Vector_171" d="M2360.5 831.746H2322.23V882.93H2360.5V831.746Z" fill="#5900CB"/>
<path id="Vector_172" d="M2322.23 748.573V761.368H2337.54V786.96H2322.23V799.755H2360.5V748.573H2322.23Z" fill="#5900CB"/>
<path id="Vector_173" d="M2360.5 998.095H2322.23V1049.28H2360.5V998.095Z" fill="#5900CB"/>
<path id="Vector_174" d="M2322.23 914.92V927.714H2337.54V953.307H2322.23V966.106H2360.5V914.92H2322.23Z" fill="#5900CB"/>
<path id="Vector_175" d="M2360.5 1164.44H2322.23V1215.63H2360.5V1164.44Z" fill="#5900CB"/>
<path id="Vector_176" d="M2322.23 1081.27V1094.07H2337.54V1119.66H2322.23V1132.45H2360.5V1081.27H2322.23Z" fill="#5900CB"/>
<path id="Vector_177" d="M2360.5 1330.79H2322.23V1381.98H2360.5V1330.79Z" fill="#5900CB"/>
<path id="Vector_178" d="M2360.5 1548.33H2322.23V1599.51H2360.5V1548.33Z" fill="#5900CB"/>
<path id="Vector_179" d="M2322.23 1247.62V1260.41H2337.54V1286.01H2322.23V1298.8H2360.5V1247.62H2322.23Z" fill="#5900CB"/>
<path id="Vector_180" d="M2322.23 1637.9V1650.69H2337.54V1676.29H2322.23V1689.08H2360.5V1637.9H2322.23Z" fill="#5900CB"/>
<path id="Vector_181" d="M2544.2 262.32H2505.93V313.504H2544.2V262.32Z" fill="#5900CB"/>
<path id="Vector_182" d="M2544.2 665.397H2505.93V716.582H2544.2V665.397Z" fill="#5900CB"/>
<path id="Vector_183" d="M2559.51 1490.74H2505.93V1497.14H2559.51V1490.74Z" fill="#5900CB"/>
<path id="Vector_184" d="M2505.93 415.875V428.67H2521.24V454.263H2505.93V467.057H2544.2V415.875H2505.93Z" fill="#5900CB"/>
<path id="Vector_185" d="M2505.93 499.047V511.846H2521.24V537.439H2505.93V550.233H2544.2V499.047H2505.93Z" fill="#5900CB"/>
<path id="Vector_186" d="M2505.93 582.223V595.021H2521.24V620.61H2505.93V633.408H2544.2V582.223H2505.93Z" fill="#5900CB"/>
<path id="Vector_187" d="M2544.2 831.746H2505.93V882.93H2544.2V831.746Z" fill="#5900CB"/>
<path id="Vector_188" d="M2505.93 748.573V761.368H2521.24V786.96H2505.93V799.755H2544.2V748.573H2505.93Z" fill="#5900CB"/>
<path id="Vector_189" d="M2544.2 998.095H2505.93V1049.28H2544.2V998.095Z" fill="#5900CB"/>
<path id="Vector_190" d="M2505.93 914.92V927.714H2521.24V953.307H2505.93V966.106H2544.2V914.92H2505.93Z" fill="#5900CB"/>
<path id="Vector_191" d="M2544.2 1164.44H2505.93V1215.63H2544.2V1164.44Z" fill="#5900CB"/>
<path id="Vector_192" d="M2505.93 1081.27V1094.07H2521.24V1119.66H2505.93V1132.45H2544.2V1081.27H2505.93Z" fill="#5900CB"/>
<path id="Vector_193" d="M2544.2 1330.79H2505.93V1381.98H2544.2V1330.79Z" fill="#5900CB"/>
<path id="Vector_194" d="M2544.2 1548.33H2505.93V1599.51H2544.2V1548.33Z" fill="#5900CB"/>
<path id="Vector_195" d="M2505.93 1247.62V1260.41H2521.24V1286.01H2505.93V1298.8H2544.2V1247.62H2505.93Z" fill="#5900CB"/>
<path id="Vector_196" d="M2505.93 1637.9V1650.69H2521.24V1676.29H2505.93V1689.08H2544.2V1637.9H2505.93Z" fill="#5900CB"/>
<path id="Vector_197" d="M1970.13 1548.33V1561.12H1985.44V1586.71H1970.13V1599.51H2008.4V1548.33H1970.13Z" fill="#5900CB"/>
<path id="Vector_198" d="M1970.13 1631.5V1644.3H1985.44V1669.89H1970.13V1682.68H2008.4V1631.5H1970.13Z" fill="#5900CB"/>
<path id="Vector_199" d="M1771.12 665.397V678.192H1786.43V703.785H1771.12V716.583H1809.39V665.397H1771.12Z" fill="#5900CB"/>
<path id="Vector_200" d="M1771.12 991.699V1004.49H1786.43V1030.09H1771.12V1042.88H1809.39V991.699H1771.12Z" fill="#5900CB"/>
<path id="Vector_201" d="M1771.12 1074.87V1087.67H1786.43V1113.26H1771.12V1126.06H1809.39V1074.87H1771.12Z" fill="#5900CB"/>
<path id="Vector_202" d="M1771.12 1241.22V1254.02H1786.43V1279.61H1771.12V1292.4H1809.39V1241.22H1771.12Z" fill="#5900CB"/>
<path id="Vector_203" d="M1771.12 1477.94V1490.74H1786.43V1516.34H1771.12V1529.13H1809.39V1477.94H1771.12Z" fill="#5900CB"/>
<path id="Vector_204" d="M1771.12 1548.33V1561.12H1786.43V1586.71H1771.12V1599.51H1809.39V1548.33H1771.12Z" fill="#5900CB"/>
<path id="Vector_205" d="M2207.41 275.115H2169.14V326.3H2207.41V275.115Z" fill="#5900CB"/>
<path id="Vector_206" d="M2207.41 358.29H2169.14V409.474H2207.41V358.29Z" fill="#5900CB"/>
<path id="Vector_207" d="M2207.41 447.863H2153.83V454.261H2207.41V447.863Z" fill="#5900CB"/>
<path id="Vector_208" d="M2207.41 857.337H2153.83V863.735H2207.41V857.337Z" fill="#5900CB"/>
<path id="Vector_209" d="M2207.41 927.716H2153.83V934.114H2207.41V927.716Z" fill="#5900CB"/>
<path id="Vector_210" d="M2169.14 505.448V518.243H2184.45V543.835H2169.14V556.63H2207.41V505.448H2169.14Z" fill="#5900CB"/>
<path id="Vector_211" d="M2169.14 665.397V678.192H2184.45V703.785H2169.14V716.583H2207.41V665.397H2169.14Z" fill="#5900CB"/>
<path id="Vector_212" d="M2169.14 991.699V1004.49H2184.45V1030.09H2169.14V1042.88H2207.41V991.699H2169.14Z" fill="#5900CB"/>
<path id="Vector_213" d="M2643.71 831.746H2605.44V882.93H2643.71V831.746Z" fill="#5900CB"/>
<path id="Vector_214" d="M2643.71 914.92H2605.44V966.104H2643.71V914.92Z" fill="#5900CB"/>
<path id="Vector_215" d="M2643.71 1004.49H2590.13V1010.89H2643.71V1004.49Z" fill="#5900CB"/>
<path id="Vector_216" d="M2643.71 1413.97H2590.13V1420.36H2643.71V1413.97Z" fill="#5900CB"/>
<path id="Vector_217" d="M2643.71 1484.34H2590.13V1490.74H2643.71V1484.34Z" fill="#5900CB"/>
<path id="Vector_218" d="M2605.44 1062.08V1074.87H2620.75V1100.46H2605.44V1113.26H2643.71V1062.08H2605.44Z" fill="#5900CB"/>
<path id="Vector_219" d="M2605.44 1222.02V1234.82H2620.75V1260.41H2605.44V1273.21H2643.71V1222.02H2605.44Z" fill="#5900CB"/>
<path id="Vector_220" d="M2605.44 1548.33V1561.12H2620.75V1586.71H2605.44V1599.51H2643.71V1548.33H2605.44Z" fill="#5900CB"/>
<path id="Vector_221" d="M2766.18 275.115H2727.91V326.3H2766.18V275.115Z" fill="#5900CB"/>
<path id="Vector_222" d="M2896.3 262.32H2858.03V313.504H2896.3V262.32Z" fill="#5900CB"/>
<path id="Vector_223" d="M2965.19 262.32H2926.92V313.504H2965.19V262.32Z" fill="#5900CB"/>
<path id="Vector_224" d="M2965.19 415.873H2926.92V467.057H2965.19V415.873Z" fill="#5900CB"/>
<path id="Vector_225" d="M3041.74 339.097H3003.46V390.281H3041.74V339.097Z" fill="#5900CB"/>
<path id="Vector_226" d="M3041.74 422.271H3003.46V473.456H3041.74V422.271Z" fill="#5900CB"/>
<path id="Vector_227" d="M2965.19 582.223H2926.92V633.407H2965.19V582.223Z" fill="#5900CB"/>
<path id="Vector_228" d="M3041.74 665.397H3003.46V716.582H3041.74V665.397Z" fill="#5900CB"/>
<path id="Vector_229" d="M2965.19 978.899H2926.92V1030.08H2965.19V978.899Z" fill="#5900CB"/>
<path id="Vector_230" d="M2896.3 665.397H2858.03V716.582H2896.3V665.397Z" fill="#5900CB"/>
<path id="Vector_231" d="M2766.18 358.29H2727.91V409.474H2766.18V358.29Z" fill="#5900CB"/>
<path id="Vector_232" d="M2766.18 1158.05H2727.91V1209.23H2766.18V1158.05Z" fill="#5900CB"/>
<path id="Vector_233" d="M2766.18 1324.39H2727.91V1375.58H2766.18V1324.39Z" fill="#5900CB"/>
<path id="Vector_234" d="M2766.18 1407.57H2727.91V1458.75H2766.18V1407.57Z" fill="#5900CB"/>
<path id="Vector_235" d="M2766.18 447.863H2712.6V454.261H2766.18V447.863Z" fill="#5900CB"/>
<path id="Vector_236" d="M2972.85 524.64H2919.27V531.038H2972.85V524.64Z" fill="#5900CB"/>
<path id="Vector_237" d="M2766.18 857.337H2712.6V863.735H2766.18V857.337Z" fill="#5900CB"/>
<path id="Vector_238" d="M2766.18 927.716H2712.6V934.114H2766.18V927.716Z" fill="#5900CB"/>
<path id="Vector_239" d="M2972.85 1337.19H2919.27V1343.59H2972.85V1337.19Z" fill="#5900CB"/>
<path id="Vector_240" d="M2911.61 1490.74H2858.03V1497.14H2911.61V1490.74Z" fill="#5900CB"/>
<path id="Vector_241" d="M2727.9 505.448V518.243H2743.22V543.835H2727.9V556.63H2766.18V505.448H2727.9Z" fill="#5900CB"/>
<path id="Vector_242" d="M2858.03 415.875V428.67H2873.34V454.263H2858.03V467.057H2896.3V415.875H2858.03Z" fill="#5900CB"/>
<path id="Vector_243" d="M3003.46 499.047V511.846H3018.77V537.439H3003.46V550.233H3041.74V499.047H3003.46Z" fill="#5900CB"/>
<path id="Vector_244" d="M3003.46 748.573V761.368H3018.77V786.96H3003.46V799.755H3041.74V748.573H3003.46Z" fill="#5900CB"/>
<path id="Vector_245" d="M3003.46 831.744V844.543H3018.77V870.135H3003.46V882.93H3041.74V831.744H3003.46Z" fill="#5900CB"/>
<path id="Vector_246" d="M3003.46 575.825V588.619H3018.77V614.212H3003.46V627.01H3041.74V575.825H3003.46Z" fill="#5900CB"/>
<path id="Vector_247" d="M2926.92 339.097V351.895H2942.23V377.484H2926.92V390.282H2965.19V339.097H2926.92Z" fill="#5900CB"/>
<path id="Vector_248" d="M2965.19 748.572H2926.92V799.756H2965.19V748.572Z" fill="#5900CB"/>
<path id="Vector_249" d="M2965.19 902.123H2926.92V953.307H2965.19V902.123Z" fill="#5900CB"/>
<path id="Vector_250" d="M2926.92 825.348V838.142H2942.23V863.735H2926.92V876.533H2965.19V825.348H2926.92Z" fill="#5900CB"/>
<path id="Vector_251" d="M2858.03 499.047V511.846H2873.34V537.439H2858.03V550.233H2896.3V499.047H2858.03Z" fill="#5900CB"/>
<path id="Vector_252" d="M2858.03 582.223V595.021H2873.34V620.61H2858.03V633.408H2896.3V582.223H2858.03Z" fill="#5900CB"/>
<path id="Vector_253" d="M2896.3 831.746H2858.03V882.93H2896.3V831.746Z" fill="#5900CB"/>
<path id="Vector_254" d="M2858.03 748.573V761.368H2873.34V786.96H2858.03V799.755H2896.3V748.573H2858.03Z" fill="#5900CB"/>
<path id="Vector_255" d="M2896.3 998.095H2858.03V1049.28H2896.3V998.095Z" fill="#5900CB"/>
<path id="Vector_256" d="M2858.03 914.92V927.714H2873.34V953.307H2858.03V966.106H2896.3V914.92H2858.03Z" fill="#5900CB"/>
<path id="Vector_257" d="M2896.3 1164.44H2858.03V1215.63H2896.3V1164.44Z" fill="#5900CB"/>
<path id="Vector_258" d="M2965.19 1151.65H2926.92V1202.83H2965.19V1151.65Z" fill="#5900CB"/>
<path id="Vector_259" d="M2858.03 1081.27V1094.07H2873.34V1119.66H2858.03V1132.45H2896.3V1081.27H2858.03Z" fill="#5900CB"/>
<path id="Vector_260" d="M3003.46 1081.27V1094.07H3018.77V1119.66H3003.46V1132.45H3041.74V1081.27H3003.46Z" fill="#5900CB"/>
<path id="Vector_261" d="M3432.11 339.097H3393.83V390.281H3432.11V339.097Z" fill="#5900CB"/>
<path id="Vector_262" d="M3432.11 422.271H3393.83V473.456H3432.11V422.271Z" fill="#5900CB"/>
<path id="Vector_263" d="M3432.11 665.397H3393.83V716.582H3432.11V665.397Z" fill="#5900CB"/>
<path id="Vector_264" d="M3393.84 499.047V511.846H3409.14V537.439H3393.84V550.233H3432.11V499.047H3393.84Z" fill="#5900CB"/>
<path id="Vector_265" d="M3393.84 748.573V761.368H3409.14V786.96H3393.84V799.755H3432.11V748.573H3393.84Z" fill="#5900CB"/>
<path id="Vector_266" d="M3393.84 831.744V844.543H3409.14V870.135H3393.84V882.93H3432.11V831.744H3393.84Z" fill="#5900CB"/>
<path id="Vector_267" d="M3393.84 575.825V588.619H3409.14V614.212H3393.84V627.01H3432.11V575.825H3393.84Z" fill="#5900CB"/>
<path id="Vector_268" d="M3393.84 1081.27V1094.07H3409.14V1119.66H3393.84V1132.45H3432.11V1081.27H3393.84Z" fill="#5900CB"/>
<path id="Vector_269" d="M2896.3 1330.79H2858.03V1381.98H2896.3V1330.79Z" fill="#5900CB"/>
<path id="Vector_270" d="M2965.19 1234.82H2926.92V1286.01H2965.19V1234.82Z" fill="#5900CB"/>
<path id="Vector_271" d="M2896.3 1548.33H2858.03V1599.51H2896.3V1548.33Z" fill="#5900CB"/>
<path id="Vector_272" d="M2965.19 1394.77H2926.92V1445.96H2965.19V1394.77Z" fill="#5900CB"/>
<path id="Vector_273" d="M2858.03 1247.62V1260.41H2873.34V1286.01H2858.03V1298.8H2896.3V1247.62H2858.03Z" fill="#5900CB"/>
<path id="Vector_274" d="M2858.03 1637.9V1650.69H2873.34V1676.29H2858.03V1689.08H2896.3V1637.9H2858.03Z" fill="#5900CB"/>
<path id="Vector_275" d="M3317.29 262.32H3279.02V313.504H3317.29V262.32Z" fill="#5900CB"/>
<path id="Vector_276" d="M3317.29 665.397H3279.02V716.582H3317.29V665.397Z" fill="#5900CB"/>
<path id="Vector_277" d="M3332.6 1490.74H3279.02V1497.14H3332.6V1490.74Z" fill="#5900CB"/>
<path id="Vector_278" d="M3279.02 415.875V428.67H3294.33V454.263H3279.02V467.057H3317.29V415.875H3279.02Z" fill="#5900CB"/>
<path id="Vector_279" d="M3279.02 499.047V511.846H3294.33V537.439H3279.02V550.233H3317.29V499.047H3279.02Z" fill="#5900CB"/>
<path id="Vector_280" d="M3279.02 582.223V595.021H3294.33V620.61H3279.02V633.408H3317.29V582.223H3279.02Z" fill="#5900CB"/>
<path id="Vector_281" d="M3317.29 831.746H3279.02V882.93H3317.29V831.746Z" fill="#5900CB"/>
<path id="Vector_282" d="M3279.02 748.573V761.368H3294.33V786.96H3279.02V799.755H3317.29V748.573H3279.02Z" fill="#5900CB"/>
<path id="Vector_283" d="M3317.29 998.095H3279.02V1049.28H3317.29V998.095Z" fill="#5900CB"/>
<path id="Vector_284" d="M3279.02 914.92V927.714H3294.33V953.307H3279.02V966.106H3317.29V914.92H3279.02Z" fill="#5900CB"/>
<path id="Vector_285" d="M3317.29 1164.44H3279.02V1215.63H3317.29V1164.44Z" fill="#5900CB"/>
<path id="Vector_286" d="M3279.02 1081.27V1094.07H3294.33V1119.66H3279.02V1132.45H3317.29V1081.27H3279.02Z" fill="#5900CB"/>
<path id="Vector_287" d="M3317.29 1330.79H3279.02V1381.98H3317.29V1330.79Z" fill="#5900CB"/>
<path id="Vector_288" d="M3317.29 1548.33H3279.02V1599.51H3317.29V1548.33Z" fill="#5900CB"/>
<path id="Vector_289" d="M3279.02 1247.62V1260.41H3294.33V1286.01H3279.02V1298.8H3317.29V1247.62H3279.02Z" fill="#5900CB"/>
<path id="Vector_290" d="M3279.02 1637.9V1650.69H3294.33V1676.29H3279.02V1689.08H3317.29V1637.9H3279.02Z" fill="#5900CB"/>
<path id="Vector_291" d="M3500.99 262.32H3462.72V313.504H3500.99V262.32Z" fill="#5900CB"/>
<path id="Vector_292" d="M3500.99 665.397H3462.72V716.582H3500.99V665.397Z" fill="#5900CB"/>
<path id="Vector_293" d="M3516.3 1490.74H3462.72V1497.14H3516.3V1490.74Z" fill="#5900CB"/>
<path id="Vector_294" d="M3462.72 415.875V428.67H3478.03V454.263H3462.72V467.057H3501V415.875H3462.72Z" fill="#5900CB"/>
<path id="Vector_295" d="M3462.72 499.047V511.846H3478.03V537.439H3462.72V550.233H3501V499.047H3462.72Z" fill="#5900CB"/>
<path id="Vector_296" d="M3462.72 582.223V595.021H3478.03V620.61H3462.72V633.408H3501V582.223H3462.72Z" fill="#5900CB"/>
<path id="Vector_297" d="M3500.99 831.746H3462.72V882.93H3500.99V831.746Z" fill="#5900CB"/>
<path id="Vector_298" d="M3462.72 748.573V761.368H3478.03V786.96H3462.72V799.755H3501V748.573H3462.72Z" fill="#5900CB"/>
<path id="Vector_299" d="M3500.99 998.095H3462.72V1049.28H3500.99V998.095Z" fill="#5900CB"/>
<path id="Vector_300" d="M3462.72 914.92V927.714H3478.03V953.307H3462.72V966.106H3501V914.92H3462.72Z" fill="#5900CB"/>
<path id="Vector_301" d="M3500.99 1164.44H3462.72V1215.63H3500.99V1164.44Z" fill="#5900CB"/>
<path id="Vector_302" d="M3462.72 1081.27V1094.07H3478.03V1119.66H3462.72V1132.45H3501V1081.27H3462.72Z" fill="#5900CB"/>
<path id="Vector_303" d="M3500.99 1330.79H3462.72V1381.98H3500.99V1330.79Z" fill="#5900CB"/>
<path id="Vector_304" d="M3500.99 1548.33H3462.72V1599.51H3500.99V1548.33Z" fill="#5900CB"/>
<path id="Vector_305" d="M3462.72 1247.62V1260.41H3478.03V1286.01H3462.72V1298.8H3501V1247.62H3462.72Z" fill="#5900CB"/>
<path id="Vector_306" d="M3462.72 1637.9V1650.69H3478.03V1676.29H3462.72V1689.08H3501V1637.9H3462.72Z" fill="#5900CB"/>
<path id="Vector_307" d="M2926.92 1548.33V1561.12H2942.23V1586.71H2926.92V1599.51H2965.19V1548.33H2926.92Z" fill="#5900CB"/>
<path id="Vector_308" d="M2926.92 1631.5V1644.3H2942.23V1669.89H2926.92V1682.68H2965.19V1631.5H2926.92Z" fill="#5900CB"/>
<path id="Vector_309" d="M2727.9 665.397V678.192H2743.22V703.785H2727.9V716.583H2766.18V665.397H2727.9Z" fill="#5900CB"/>
<path id="Vector_310" d="M2727.9 991.699V1004.49H2743.22V1030.09H2727.9V1042.88H2766.18V991.699H2727.9Z" fill="#5900CB"/>
<path id="Vector_311" d="M2727.9 1074.87V1087.67H2743.22V1113.26H2727.9V1126.06H2766.18V1074.87H2727.9Z" fill="#5900CB"/>
<path id="Vector_312" d="M2727.9 1241.22V1254.02H2743.22V1279.61H2727.9V1292.4H2766.18V1241.22H2727.9Z" fill="#5900CB"/>
<path id="Vector_313" d="M2727.9 1477.94V1490.74H2743.22V1516.34H2727.9V1529.13H2766.18V1477.94H2727.9Z" fill="#5900CB"/>
<path id="Vector_314" d="M2727.9 1548.33V1561.12H2743.22V1586.71H2727.9V1599.51H2766.18V1548.33H2727.9Z" fill="#5900CB"/>
<path id="Vector_315" d="M3164.21 275.115H3125.93V326.3H3164.21V275.115Z" fill="#5900CB"/>
<path id="Vector_316" d="M3164.21 358.29H3125.93V409.474H3164.21V358.29Z" fill="#5900CB"/>
<path id="Vector_317" d="M3164.2 447.863H3110.62V454.261H3164.2V447.863Z" fill="#5900CB"/>
<path id="Vector_318" d="M3164.2 857.337H3110.62V863.735H3164.2V857.337Z" fill="#5900CB"/>
<path id="Vector_319" d="M3164.2 927.716H3110.62V934.114H3164.2V927.716Z" fill="#5900CB"/>
<path id="Vector_320" d="M3125.93 505.448V518.243H3141.24V543.835H3125.93V556.63H3164.2V505.448H3125.93Z" fill="#5900CB"/>
<path id="Vector_321" d="M3125.93 665.397V678.192H3141.24V703.785H3125.93V716.583H3164.2V665.397H3125.93Z" fill="#5900CB"/>
<path id="Vector_322" d="M3125.93 991.699V1004.49H3141.24V1030.09H3125.93V1042.88H3164.2V991.699H3125.93Z" fill="#5900CB"/>
<path id="Vector_323" d="M3600.5 831.746H3562.23V882.93H3600.5V831.746Z" fill="#5900CB"/>
<path id="Vector_324" d="M3600.5 914.92H3562.23V966.104H3600.5V914.92Z" fill="#5900CB"/>
<path id="Vector_325" d="M3600.5 1004.49H3546.92V1010.89H3600.5V1004.49Z" fill="#5900CB"/>
<path id="Vector_326" d="M3600.5 1413.97H3546.92V1420.36H3600.5V1413.97Z" fill="#5900CB"/>
<path id="Vector_327" d="M3562.23 1062.08V1074.87H3577.54V1100.46H3562.23V1113.26H3600.5V1062.08H3562.23Z" fill="#5900CB"/>
<path id="Vector_328" d="M3562.23 1222.02V1234.82H3577.54V1260.41H3562.23V1273.21H3600.5V1222.02H3562.23Z" fill="#5900CB"/>
<path id="Vector_329" d="M3562.23 1548.33V1561.12H3577.54V1586.71H3562.23V1599.51H3600.5V1548.33H3562.23Z" fill="#5900CB"/>
</g>
<g id="person-container">
<path id="Vector_330" d="M3600.5 1641.75H3546.92V1648.83H3600.5V1641.75Z" fill="#6C63FF"/>
<path id="Vector_331" d="M0 2120.83C18.328 2144.48 38.1518 2166.7 59.3264 2187.34L1600.67 2189.64C1621.85 2169 1641.67 2146.78 1660 2123.13L0 2120.83Z" fill="url(#paint0_linear_20_451)"/>
<path id="Vector_332" d="M1035.19 2143.39C1035.68 2144.06 1036.3 2144.6 1037.01 2144.97C1037.72 2145.34 1038.5 2145.53 1039.29 2145.52H1326.2C1326.98 2145.52 1327.76 2145.33 1328.46 2144.96C1329.17 2144.6 1329.8 2144.06 1330.29 2143.4C1330.79 2142.73 1331.14 2141.96 1331.32 2141.13C1331.51 2140.3 1331.52 2139.43 1331.36 2138.6L1326.9 2115.56C1326.72 2114.62 1326.32 2113.75 1325.75 2113.02C1325.17 2112.29 1324.44 2111.73 1323.62 2111.38C1323.02 2111.13 1322.38 2111 1321.74 2111H1043.72C1043.08 2111 1042.45 2111.13 1041.85 2111.38C1041.03 2111.73 1040.29 2112.29 1039.72 2113.02C1039.14 2113.75 1038.75 2114.62 1038.56 2115.56L1034.11 2138.6C1033.95 2139.43 1033.97 2140.3 1034.15 2141.12C1034.34 2141.95 1034.69 2142.73 1035.19 2143.39V2143.39Z" fill="#2F2E41"/>
<path id="Vector_333" d="M1316.03 2120.77H1322.81C1323.38 2120.77 1323.84 2120.27 1323.84 2119.65V2116.12C1323.84 2115.5 1323.38 2115 1322.81 2115H1316.03C1315.46 2115 1315 2115.5 1315 2116.12V2119.65C1315 2120.27 1315.46 2120.77 1316.03 2120.77Z" fill="url(#paint1_linear_20_451)"/>
<path id="Vector_334" d="M1299.03 2120.77H1305.81C1306.38 2120.77 1306.84 2120.27 1306.84 2119.65V2116.12C1306.84 2115.5 1306.38 2115 1305.81 2115H1299.03C1298.46 2115 1298 2115.5 1298 2116.12V2119.65C1298 2120.27 1298.46 2120.77 1299.03 2120.77Z" fill="url(#paint2_linear_20_451)"/>
<path id="Vector_335" d="M1282.03 2120.77H1288.81C1289.38 2120.77 1289.84 2120.27 1289.84 2119.65V2116.12C1289.84 2115.5 1289.38 2115 1288.81 2115H1282.03C1281.46 2115 1281 2115.5 1281 2116.12V2119.65C1281 2120.27 1281.46 2120.77 1282.03 2120.77Z" fill="url(#paint3_linear_20_451)"/>
<path id="Vector_336" d="M1265.03 2120.77H1271.81C1272.38 2120.77 1272.84 2120.27 1272.84 2119.65V2116.12C1272.84 2115.5 1272.38 2115 1271.81 2115H1265.03C1264.46 2115 1264 2115.5 1264 2116.12V2119.65C1264 2120.27 1264.46 2120.77 1265.03 2120.77Z" fill="url(#paint4_linear_20_451)"/>
<path id="Vector_337" d="M1248.03 2120.77H1254.81C1255.38 2120.77 1255.84 2120.27 1255.84 2119.65V2116.12C1255.84 2115.5 1255.38 2115 1254.81 2115H1248.03C1247.46 2115 1247 2115.5 1247 2116.12V2119.65C1247 2120.27 1247.46 2120.77 1248.03 2120.77Z" fill="url(#paint5_linear_20_451)"/>
<path id="Vector_338" d="M1228.03 2120.77H1234.81C1235.38 2120.77 1235.84 2120.27 1235.84 2119.65V2116.12C1235.84 2115.5 1235.38 2115 1234.81 2115H1228.03C1227.46 2115 1227 2115.5 1227 2116.12V2119.65C1227 2120.27 1227.46 2120.77 1228.03 2120.77Z" fill="url(#paint6_linear_20_451)"/>
<path id="Vector_339" d="M1051.24 2120.69H1058.02C1058.59 2120.69 1059.05 2120.19 1059.05 2119.57V2116.04C1059.05 2115.42 1058.59 2114.92 1058.02 2114.92H1051.24C1050.68 2114.92 1050.21 2115.42 1050.21 2116.04V2119.57C1050.21 2120.19 1050.68 2120.69 1051.24 2120.69Z" fill="#3F3D56"/>
<path id="Vector_340" d="M1316.03 2129.77H1322.81C1323.38 2129.77 1323.84 2129.27 1323.84 2128.65V2125.12C1323.84 2124.5 1323.38 2124 1322.81 2124H1316.03C1315.46 2124 1315 2124.5 1315 2125.12V2128.65C1315 2129.27 1315.46 2129.77 1316.03 2129.77Z" fill="url(#paint7_linear_20_451)"/>
<path id="Vector_341" d="M1299.03 2129.77H1305.81C1306.38 2129.77 1306.84 2129.27 1306.84 2128.65V2125.12C1306.84 2124.5 1306.38 2124 1305.81 2124H1299.03C1298.46 2124 1298 2124.5 1298 2125.12V2128.65C1298 2129.27 1298.46 2129.77 1299.03 2129.77Z" fill="url(#paint8_linear_20_451)"/>
<path id="Vector_342" d="M1282.03 2129.77H1288.81C1289.38 2129.77 1289.84 2129.27 1289.84 2128.65V2125.12C1289.84 2124.5 1289.38 2124 1288.81 2124H1282.03C1281.46 2124 1281 2124.5 1281 2125.12V2128.65C1281 2129.27 1281.46 2129.77 1282.03 2129.77Z" fill="url(#paint9_linear_20_451)"/>
<path id="Vector_343" d="M1265.03 2129.77H1271.81C1272.38 2129.77 1272.84 2129.27 1272.84 2128.65V2125.12C1272.84 2124.5 1272.38 2124 1271.81 2124H1265.03C1264.46 2124 1264 2124.5 1264 2125.12V2128.65C1264 2129.27 1264.46 2129.77 1265.03 2129.77Z" fill="url(#paint10_linear_20_451)"/>
<path id="Vector_344" d="M1248.03 2129.77H1254.81C1255.38 2129.77 1255.84 2129.27 1255.84 2128.65V2125.12C1255.84 2124.5 1255.38 2124 1254.81 2124H1248.03C1247.46 2124 1247 2124.5 1247 2125.12V2128.65C1247 2129.27 1247.46 2129.77 1248.03 2129.77Z" fill="url(#paint11_linear_20_451)"/>
<path id="Vector_345" d="M1228.03 2129.77H1234.81C1235.38 2129.77 1235.84 2129.27 1235.84 2128.65V2125.12C1235.84 2124.5 1235.38 2124 1234.81 2124H1228.03C1227.46 2124 1227 2124.5 1227 2125.12V2128.65C1227 2129.27 1227.46 2129.77 1228.03 2129.77Z" fill="url(#paint12_linear_20_451)"/>
<path id="Vector_346" d="M1210.03 2129.77H1216.81C1217.38 2129.77 1217.84 2129.27 1217.84 2128.65V2125.12C1217.84 2124.5 1217.38 2124 1216.81 2124H1210.03C1209.46 2124 1209 2124.5 1209 2125.12V2128.65C1209 2129.27 1209.46 2129.77 1210.03 2129.77Z" fill="url(#paint13_linear_20_451)"/>
<path id="Vector_347" d="M1210.03 2120.77H1216.81C1217.38 2120.77 1217.84 2120.27 1217.84 2119.65V2116.12C1217.84 2115.5 1217.38 2115 1216.81 2115H1210.03C1209.46 2115 1209 2115.5 1209 2116.12V2119.65C1209 2120.27 1209.46 2120.77 1210.03 2120.77Z" fill="url(#paint14_linear_20_451)"/>
<path id="Vector_348" d="M1193.03 2120.77H1199.81C1200.38 2120.77 1200.84 2120.27 1200.84 2119.65V2116.12C1200.84 2115.5 1200.38 2115 1199.81 2115H1193.03C1192.46 2115 1192 2115.5 1192 2116.12V2119.65C1192 2120.27 1192.46 2120.77 1193.03 2120.77Z" fill="url(#paint15_linear_20_451)"/>
<path id="Vector_349" d="M1193.03 2130.77H1199.81C1200.38 2130.77 1200.84 2130.27 1200.84 2129.65V2126.12C1200.84 2125.5 1200.38 2125 1199.81 2125H1193.03C1192.46 2125 1192 2125.5 1192 2126.12V2129.65C1192 2130.27 1192.46 2130.77 1193.03 2130.77Z" fill="url(#paint16_linear_20_451)"/>
<path id="Vector_350" d="M1176.03 2120.77H1182.81C1183.38 2120.77 1183.84 2120.27 1183.84 2119.65V2116.12C1183.84 2115.5 1183.38 2115 1182.81 2115H1176.03C1175.46 2115 1175 2115.5 1175 2116.12V2119.65C1175 2120.27 1175.46 2120.77 1176.03 2120.77Z" fill="url(#paint17_linear_20_451)"/>
<path id="Vector_351" d="M1176.03 2130.77H1182.81C1183.38 2130.77 1183.84 2130.27 1183.84 2129.65V2126.12C1183.84 2125.5 1183.38 2125 1182.81 2125H1176.03C1175.46 2125 1175 2125.5 1175 2126.12V2129.65C1175 2130.27 1175.46 2130.77 1176.03 2130.77Z" fill="url(#paint18_linear_20_451)"/>
<path id="Vector_352" d="M1159.03 2120.77H1165.81C1166.38 2120.77 1166.84 2120.27 1166.84 2119.65V2116.12C1166.84 2115.5 1166.38 2115 1165.81 2115H1159.03C1158.46 2115 1158 2115.5 1158 2116.12V2119.65C1158 2120.27 1158.46 2120.77 1159.03 2120.77Z" fill="url(#paint19_linear_20_451)"/>
<path id="Vector_353" d="M1159.03 2130.77H1165.81C1166.38 2130.77 1166.84 2130.27 1166.84 2129.65V2126.12C1166.84 2125.5 1166.38 2125 1165.81 2125H1159.03C1158.46 2125 1158 2125.5 1158 2126.12V2129.65C1158 2130.27 1158.46 2130.77 1159.03 2130.77Z" fill="url(#paint20_linear_20_451)"/>
<path id="Vector_354" d="M1141.03 2120.77H1147.81C1148.38 2120.77 1148.84 2120.27 1148.84 2119.65V2116.12C1148.84 2115.5 1148.38 2115 1147.81 2115H1141.03C1140.46 2115 1140 2115.5 1140 2116.12V2119.65C1140 2120.27 1140.46 2120.77 1141.03 2120.77Z" fill="url(#paint21_linear_20_451)"/>
<path id="Vector_355" d="M1141.03 2130.77H1147.81C1148.38 2130.77 1148.84 2130.27 1148.84 2129.65V2126.12C1148.84 2125.5 1148.38 2125 1147.81 2125H1141.03C1140.46 2125 1140 2125.5 1140 2126.12V2129.65C1140 2130.27 1140.46 2130.77 1141.03 2130.77Z" fill="url(#paint22_linear_20_451)"/>
<path id="Vector_356" d="M1124.03 2120.77H1130.81C1131.38 2120.77 1131.84 2120.27 1131.84 2119.65V2116.12C1131.84 2115.5 1131.38 2115 1130.81 2115H1124.03C1123.46 2115 1123 2115.5 1123 2116.12V2119.65C1123 2120.27 1123.46 2120.77 1124.03 2120.77Z" fill="url(#paint23_linear_20_451)"/>
<path id="Vector_357" d="M1124.03 2130.77H1130.81C1131.38 2130.77 1131.84 2130.27 1131.84 2129.65V2126.12C1131.84 2125.5 1131.38 2125 1130.81 2125H1124.03C1123.46 2125 1123 2125.5 1123 2126.12V2129.65C1123 2130.27 1123.46 2130.77 1124.03 2130.77Z" fill="url(#paint24_linear_20_451)"/>
<path id="Vector_358" d="M1107.03 2120.77H1113.81C1114.38 2120.77 1114.84 2120.27 1114.84 2119.65V2116.12C1114.84 2115.5 1114.38 2115 1113.81 2115H1107.03C1106.46 2115 1106 2115.5 1106 2116.12V2119.65C1106 2120.27 1106.46 2120.77 1107.03 2120.77Z" fill="url(#paint25_linear_20_451)"/>
<path id="Vector_359" d="M1107.03 2130.77H1113.81C1114.38 2130.77 1114.84 2130.27 1114.84 2129.65V2126.12C1114.84 2125.5 1114.38 2125 1113.81 2125H1107.03C1106.46 2125 1106 2125.5 1106 2126.12V2129.65C1106 2130.27 1106.46 2130.77 1107.03 2130.77Z" fill="url(#paint26_linear_20_451)"/>
<path id="Vector_360" d="M1090.03 2120.77H1096.81C1097.38 2120.77 1097.84 2120.27 1097.84 2119.65V2116.12C1097.84 2115.5 1097.38 2115 1096.81 2115H1090.03C1089.46 2115 1089 2115.5 1089 2116.12V2119.65C1089 2120.27 1089.46 2120.77 1090.03 2120.77Z" fill="url(#paint27_linear_20_451)"/>
<path id="Vector_361" d="M1090.03 2130.77H1096.81C1097.38 2130.77 1097.84 2130.27 1097.84 2129.65V2126.12C1097.84 2125.5 1097.38 2125 1096.81 2125H1090.03C1089.46 2125 1089 2125.5 1089 2126.12V2129.65C1089 2130.27 1089.46 2130.77 1090.03 2130.77Z" fill="url(#paint28_linear_20_451)"/>
<path id="Vector_362" d="M1073.03 2130.77H1079.81C1080.38 2130.77 1080.84 2130.27 1080.84 2129.65V2126.12C1080.84 2125.5 1080.38 2125 1079.81 2125H1073.03C1072.46 2125 1072 2125.5 1072 2126.12V2129.65C1072 2130.27 1072.46 2130.77 1073.03 2130.77Z" fill="url(#paint29_linear_20_451)"/>
<path id="Vector_363" d="M1073.03 2120.77H1079.81C1080.38 2120.77 1080.84 2120.27 1080.84 2119.65V2116.12C1080.84 2115.5 1080.38 2115 1079.81 2115H1073.03C1072.46 2115 1072 2115.5 1072 2116.12V2119.65C1072 2120.27 1072.46 2120.77 1073.03 2120.77Z" fill="url(#paint30_linear_20_451)"/>
<path id="Vector_364" d="M1051.45 2130.32H1058.23C1058.8 2130.32 1059.26 2129.81 1059.26 2129.19V2125.66C1059.26 2125.05 1058.8 2124.54 1058.23 2124.54H1051.45C1050.88 2124.54 1050.42 2125.05 1050.42 2125.66V2129.19C1050.42 2129.81 1050.88 2130.32 1051.45 2130.32Z" fill="#3F3D56"/>
<path id="Vector_365" d="M1169.86 2141.86H1238.5C1239.07 2141.86 1239.53 2141.36 1239.53 2140.74V2137.21C1239.53 2136.59 1239.07 2136.09 1238.5 2136.09H1169.86C1169.3 2136.09 1168.83 2136.59 1168.83 2137.21V2140.74C1168.83 2141.36 1169.3 2141.86 1169.86 2141.86Z" fill="#3F3D56"/>
<path id="Vector_366" d="M1011.16 2250.75L983 2202.28L1071.4 2125.54L1107.89 2081.52C1112.63 2075.81 1118.67 2071.54 1125.4 2069.16C1132.12 2066.78 1139.31 2066.36 1146.23 2067.95C1153.16 2069.53 1159.58 2073.07 1164.85 2078.21C1170.12 2083.34 1174.07 2089.89 1176.29 2097.21C1179.58 2108.05 1178.87 2119.86 1174.31 2130.14C1169.76 2140.42 1161.71 2148.38 1151.88 2152.32L1094.18 2175.47L1011.16 2250.75Z" fill="url(#paint31_linear_20_451)"/>
<path id="Vector_367" d="M403.955 2126.51V2149.23C403.958 2150.4 404.388 2151.53 405.15 2152.37C405.912 2153.2 406.946 2153.67 408.027 2153.68H552.398C553.48 2153.68 554.515 2153.21 555.278 2152.37C556.041 2151.54 556.47 2150.41 556.47 2149.23V2126.51H403.955Z" fill="#3F3D56"/>
<path id="Vector_368" d="M286.526 2152.15C287.112 2152.95 287.857 2153.59 288.704 2154.03C289.552 2154.47 290.481 2154.7 291.421 2154.7H633.919C634.855 2154.69 635.78 2154.47 636.625 2154.03C637.471 2153.59 638.215 2152.95 638.806 2152.16C639.396 2151.36 639.816 2150.44 640.036 2149.45C640.257 2148.46 640.271 2147.42 640.079 2146.43L634.763 2118.93C634.542 2117.81 634.068 2116.76 633.382 2115.89C632.697 2115.02 631.823 2114.35 630.838 2113.94C630.126 2113.64 629.367 2113.48 628.602 2113.48H296.716C295.951 2113.48 295.192 2113.64 294.48 2113.94C293.496 2114.35 292.621 2115.02 291.936 2115.89C291.25 2116.76 290.776 2117.81 290.556 2118.93L285.239 2146.43C285.05 2147.42 285.067 2148.45 285.29 2149.44C285.512 2150.43 285.935 2151.36 286.526 2152.15Z" fill="url(#paint32_linear_20_451)"/>
<path id="Vector_369" d="M1463.32 2136.48C1464.25 2139.43 1466.01 2141.98 1468.36 2143.76C1470.7 2145.55 1473.5 2146.48 1476.36 2146.43L1532.26 2144.86C1535.14 2144.8 1537.92 2143.73 1540.2 2141.8C1542.47 2139.87 1544.11 2137.19 1544.87 2134.16L1552.78 2042.07C1555.59 2043.46 1558.64 2044.14 1561.72 2044.07C1564.4 2044 1567.04 2043.35 1569.48 2042.17C1571.93 2040.99 1574.14 2039.29 1575.98 2037.18C1577.83 2035.07 1579.27 2032.58 1580.23 2029.86C1581.2 2027.14 1581.66 2024.24 1581.59 2021.33C1581.52 2018.41 1580.93 2015.54 1579.84 2012.88C1578.76 2010.22 1577.2 2007.81 1575.26 2005.8C1573.32 2003.79 1571.04 2002.22 1568.54 2001.17C1566.04 2000.13 1563.38 1999.62 1560.7 1999.7C1559.47 1999.69 1558.24 1999.83 1557.04 2000.11C1555.73 1998.57 1554.14 1997.34 1552.37 1996.51C1550.6 1995.68 1548.68 1995.26 1546.76 1995.28L1460.78 1997.7C1460.07 1997.73 1459.36 1997.82 1458.66 1997.99C1456.78 1998.37 1454.99 1999.19 1453.42 2000.38C1451.85 2001.58 1450.53 2003.13 1449.55 2004.93C1448.58 2006.73 1447.97 2008.74 1447.77 2010.81C1447.57 2012.89 1447.77 2014.99 1448.38 2016.97L1463.32 2136.48ZM1554.41 2035.82L1560.03 2013.87C1560.67 2011.34 1560.69 2008.67 1560.08 2006.12C1560.35 2006.12 1560.59 2005.98 1560.86 2005.98C1564.72 2005.89 1568.46 2007.48 1571.24 2010.38C1574.03 2013.29 1575.65 2017.28 1575.74 2021.48C1575.83 2025.68 1574.39 2029.75 1571.73 2032.8C1569.07 2035.84 1565.4 2037.61 1561.55 2037.72C1559.05 2037.81 1556.58 2037.15 1554.41 2035.82Z" fill="#2F2E41"/>
<path id="Vector_370" d="M1458.66 1997.99C1460.49 2009.39 1481.09 2017.41 1505.85 2016.01C1528.62 2014.87 1547.24 2006.16 1550.65 1995.85C1549.38 1995.44 1548.07 1995.25 1546.76 1995.28L1460.78 1997.7C1460.07 1997.73 1459.36 1997.82 1458.66 1997.99V1997.99Z" fill="#3F3D56"/>
<path id="Vector_371" d="M1510.39 2085.87C1510.5 2085.84 1510.61 2085.79 1510.7 2085.72L1522.84 2077.07C1522.99 2076.97 1523.11 2076.82 1523.19 2076.66C1523.28 2076.49 1523.32 2076.3 1523.32 2076.11C1523.32 2075.92 1523.28 2075.73 1523.19 2075.56C1523.11 2075.4 1522.99 2075.25 1522.84 2075.15L1510.23 2066.15C1510.11 2066.07 1509.98 2066.01 1509.84 2065.98C1509.71 2065.95 1509.57 2065.95 1509.43 2065.99C1509.3 2066.02 1509.17 2066.08 1509.05 2066.16C1508.94 2066.25 1508.84 2066.35 1508.76 2066.48C1508.69 2066.61 1508.63 2066.75 1508.61 2066.9C1508.58 2067.05 1508.58 2067.2 1508.61 2067.35C1508.64 2067.49 1508.7 2067.63 1508.78 2067.76C1508.85 2067.88 1508.95 2067.99 1509.07 2068.07L1520.34 2076.11L1509.55 2083.8C1509.34 2083.95 1509.19 2084.17 1509.12 2084.43C1509.04 2084.69 1509.06 2084.97 1509.16 2085.22C1509.26 2085.47 1509.44 2085.67 1509.66 2085.79C1509.89 2085.91 1510.14 2085.94 1510.39 2085.87H1510.39Z" fill="#FF004D"/>
<path id="Vector_372" d="M1491.21 2086.84C1491.42 2086.78 1491.6 2086.66 1491.74 2086.49C1491.88 2086.32 1491.97 2086.11 1492 2085.88C1492.03 2085.65 1491.99 2085.42 1491.9 2085.22C1491.81 2085.01 1491.66 2084.84 1491.48 2084.73L1480.29 2077.74L1491.11 2069C1491.22 2068.91 1491.31 2068.79 1491.38 2068.66C1491.45 2068.53 1491.5 2068.39 1491.52 2068.24C1491.54 2068.09 1491.53 2067.94 1491.5 2067.79C1491.47 2067.65 1491.41 2067.51 1491.32 2067.39C1491.24 2067.27 1491.14 2067.17 1491.02 2067.09C1490.9 2067.01 1490.77 2066.96 1490.63 2066.94C1490.49 2066.92 1490.35 2066.92 1490.22 2066.96C1490.09 2067 1489.96 2067.06 1489.85 2067.15L1477.74 2076.95C1477.6 2077.06 1477.49 2077.21 1477.41 2077.38C1477.34 2077.55 1477.31 2077.74 1477.32 2077.94C1477.33 2078.13 1477.38 2078.31 1477.47 2078.47C1477.57 2078.63 1477.69 2078.77 1477.85 2078.86L1490.43 2086.72C1490.67 2086.87 1490.95 2086.91 1491.21 2086.84V2086.84Z" fill="#FF004D"/>
<path id="Vector_373" d="M1509.18 2093.46C1509.28 2093.43 1509.38 2093.38 1509.47 2093.32C1509.59 2093.24 1509.69 2093.14 1509.77 2093.02C1509.85 2092.9 1509.91 2092.76 1509.94 2092.61C1509.98 2092.47 1509.98 2092.31 1509.96 2092.16C1509.94 2092.02 1509.89 2091.87 1509.82 2091.74L1492.61 2060.94C1492.47 2060.68 1492.23 2060.5 1491.96 2060.42C1491.69 2060.35 1491.4 2060.4 1491.17 2060.56C1490.93 2060.72 1490.75 2060.97 1490.69 2061.27C1490.62 2061.56 1490.67 2061.88 1490.81 2062.14L1508.02 2092.94C1508.14 2093.15 1508.31 2093.31 1508.52 2093.41C1508.73 2093.5 1508.96 2093.52 1509.18 2093.46Z" fill="#FF004D"/>
<path id="Vector_374" d="M689.504 2165.32L673.499 2202.61L662.573 2228.08L643.776 2335.24L634.366 2346.11L626.303 2307.61L541.918 2328.02C539.15 2311.27 541.177 2328.58 539.468 2310.21C539.949 2309.69 540.454 2309.16 540.96 2308.64C542.308 2307.28 543.439 2305.99 543.415 2304.76C542.452 2241.39 545.34 2133.55 569.456 2068.22C573.233 2057.55 578.213 2047.44 584.281 2038.11C584.763 2037.4 585.22 2036.69 585.677 2035.99C596.796 2019.03 603.824 2002.34 613.788 1990.47V1990.44C613.85 1990.39 613.907 1990.32 613.957 1990.26C613.993 1990.24 614.025 1990.21 614.053 1990.18L682.5 1950.66L685.437 2040.49L687.531 2105.07L689.504 2165.32Z" fill="#13131C"/>
<path id="Vector_375" d="M936.313 2175.91L956.305 2222.48L963.283 2238.7L982.075 2345.85L991.454 2356.7L999.535 2318.21L1003.33 2317.36L1071.81 2301.92L1091.77 2370.94C1096.27 2362.78 1098.04 2353.18 1096.79 2343.76C1095.54 2334.34 1091.33 2325.68 1084.89 2319.24C1083.53 2317.9 1082.39 2316.59 1082.42 2315.36C1083.56 2240.83 1079.37 2104.73 1041.56 2048.72C1029.56 2030.95 1022.35 2013.24 1011.87 2000.87C1011.84 2000.84 1011.84 2000.8 1011.8 2000.8L986.294 1955.32L984.736 1952.53L982.983 1951.57L936.313 2175.91Z" fill="url(#paint33_linear_20_451)"/>
<path id="Ellipse 5" d="M815.204 1839.35C867.122 1839.35 909.211 1793.52 909.211 1736.98C909.211 1680.45 867.122 1634.62 815.204 1634.62C763.285 1634.62 721.196 1680.45 721.196 1736.98C721.196 1793.52 763.285 1839.35 815.204 1839.35Z" fill="#FFB6B6"/>
<path id="Ellipse 6" d="M818.5 2002C832.583 2002 844 1938.65 844 1860.5C844 1782.35 832.583 1719 818.5 1719C804.417 1719 793 1782.35 793 1860.5C793 1938.65 804.417 2002 818.5 2002Z" fill="#C18D8D"/>
<path id="Vector_376" d="M942.265 1665.48C941.536 1664.64 940.658 1663.96 939.683 1663.49C938.708 1663.02 937.656 1662.77 936.59 1662.75L938.003 1658.48C938.464 1657.13 938.589 1655.68 938.364 1654.26C938.139 1652.85 937.572 1651.52 936.722 1650.42C935.872 1649.32 934.769 1648.49 933.526 1648.01C932.283 1647.53 930.945 1647.41 929.648 1647.68L924.501 1648.76L924.986 1645.02C925.172 1643.62 925.021 1642.2 924.549 1640.89C924.077 1639.57 923.299 1638.42 922.292 1637.53C921.285 1636.65 920.084 1636.06 918.807 1635.84C917.529 1635.61 916.22 1635.75 915.007 1636.24C913.903 1636.71 912.717 1636.91 911.534 1636.82C910.351 1636.73 909.202 1636.35 908.171 1635.71C907.136 1635.09 906.237 1634.24 905.538 1633.2C904.838 1632.17 904.354 1630.98 904.12 1629.72L902.327 1620.3L902.137 1619.79C893.403 1603.94 876.609 1592.41 856.06 1588.18C837.768 1584.39 819.013 1586.32 800.932 1588.14C793.759 1588.87 785.657 1589.7 778.906 1594.2C773.168 1598.06 768.315 1605.78 769.307 1613.57C751.479 1607.62 732.365 1619.49 722.892 1634.47C711.668 1652.3 709.833 1674.63 709.537 1692.09C708.736 1733.39 716.563 1767.18 732.745 1792.55C733.926 1794.38 734.222 1798.22 736.563 1799.51L736.078 1798.66C738.694 1800.08 741.352 1802.38 740.361 1804.84C737.513 1811.91 756.437 1827.56 769.771 1832.72C794.096 1842.17 826.439 1841.36 849.182 1837.96L849.984 1832.1C858.191 1830.89 863.972 1828.57 865.596 1824.94C868.465 1822.27 870.913 1819.88 873.044 1817.68L873.065 1817.65C873.107 1817.61 873.191 1817.54 873.233 1817.49C883.508 1806.77 885.892 1800.66 886.968 1791.35C888.002 1782.23 886.166 1772.97 884.289 1764.63C923.826 1771.3 868.719 1718.78 905.555 1708.63C905.977 1708.49 906.407 1708.37 906.842 1708.28C907.918 1708.01 908.994 1707.73 910.028 1707.41C915.011 1705.94 919.782 1703.72 924.205 1700.82C934.501 1693.99 937.898 1684.94 943.214 1674.74C943.981 1673.29 944.303 1671.61 944.132 1669.94C943.961 1668.28 943.307 1666.72 942.265 1665.48V1665.48Z" fill="url(#paint34_linear_20_451)"/>
<path id="Vector_377" d="M319.091 2153H503.909C519.422 2153 532 2152.83 532 2152.61V2151.39C532 2151.17 519.422 2151 503.909 2151H319.091C303.578 2151 291 2151.17 291 2151.39V2152.61C291 2152.83 303.578 2153 319.091 2153Z" fill="url(#paint35_linear_20_451)"/>
<path id="Vector_378" d="M1471.68 1930.18C1471.68 1930.47 1471.9 1933.06 1472.18 1935.95C1472.5 1939.09 1472.72 1944.18 1472.72 1948.76C1472.75 1957.13 1472.4 1960.09 1470.7 1967.52C1470.17 1969.9 1469.38 1973.29 1468.97 1975.1C1466.99 1983.68 1468.03 1989.92 1472.27 1994.76C1475.27 1998.19 1479.29 2000.31 1483.76 2000.78L1486 2001L1483.48 1998.84C1479.92 1995.73 1477.5 1992.7 1476.34 1989.89C1475.42 1987.61 1475.39 1987.29 1475.55 1984.37C1475.67 1982.09 1476.02 1980.18 1476.87 1977.44C1479.29 1969.43 1479.92 1965.9 1480.08 1959.58C1480.21 1955.22 1480.11 1952.98 1479.74 1950.38C1479.01 1945.69 1477.19 1939.63 1475.2 1935.55C1473.44 1931.91 1471.71 1929.28 1471.68 1930.18Z" fill="url(#paint36_linear_20_451)"/>
<path id="Vector_379" d="M1526.3 1970.2C1526.29 1970.35 1526.41 1971.67 1526.57 1973.14C1526.76 1974.74 1526.83 1977.33 1526.73 1979.65C1526.59 1983.89 1526.26 1985.38 1524.78 1989.09C1524.32 1990.28 1523.64 1991.98 1523.28 1992.88C1521.56 1997.17 1522.24 2000.36 1525.46 2002.94C1527.72 2004.77 1530.82 2005.98 1534.3 2006.35L1536.04 2006.53L1534.12 2005.36C1531.41 2003.67 1529.58 2002.06 1528.73 2000.6C1528.06 1999.42 1528.04 1999.26 1528.22 1997.78C1528.37 1996.63 1528.68 1995.67 1529.4 1994.31C1531.45 1990.33 1532.01 1988.56 1532.26 1985.36C1532.45 1983.16 1532.42 1982.02 1532.18 1980.69C1531.71 1978.29 1530.4 1975.16 1528.94 1973.04C1527.64 1971.14 1526.34 1969.75 1526.3 1970.2Z" fill="url(#paint37_linear_20_451)"/>
<path id="Vector_380" d="M1506.38 1917.81C1506.34 1918.2 1506.19 1921.72 1506.07 1925.64C1505.95 1929.9 1505.39 1936.76 1504.63 1942.91C1503.28 1954.15 1502.35 1958.06 1498.97 1967.77C1497.89 1970.88 1496.33 1975.31 1495.52 1977.67C1491.58 1988.88 1491.87 1997.42 1496.45 2004.57C1499.68 2009.64 1504.44 2013.12 1510.03 2014.45L1512.83 2015.09L1509.99 2011.79C1505.99 2007.07 1503.42 2002.63 1502.41 1998.67C1501.63 1995.48 1501.64 1995.04 1502.33 1991.14C1502.86 1988.11 1503.62 1985.6 1505.15 1982.05C1509.55 1971.68 1510.93 1967.04 1512.18 1958.59C1513.06 1952.75 1513.31 1949.73 1513.26 1946.19C1513.12 1939.78 1511.81 1931.36 1509.97 1925.58C1508.33 1920.41 1506.57 1916.61 1506.38 1917.81Z" fill="url(#paint38_linear_20_451)"/>
<path id="Vector_381" d="M613.33 1988.87L613.787 1990.44L613.811 1990.49L627.578 2036.07L643.414 2088.58L673.21 2187.28L673.499 2202.61V2202.66L675.713 2325.99L669.576 2342.71L676.483 2370.12C676.483 2370.12 673.306 2328.68 656.266 2352.48C646.615 2366 635.328 2379.84 626.062 2392.81C639.564 2398.76 653.282 2404.14 667.217 2408.95C670.226 2410 673.258 2411 676.291 2411.99C676.94 2412.2 677.59 2412.41 678.24 2412.62C724.433 2427.5 772.187 2435.86 820.334 2437.49C822.837 2437.57 825.292 2437.62 827.675 2437.68C828.517 2437.7 829.335 2437.73 830.154 2437.73C832.849 2437.76 835.521 2437.78 838.216 2437.78C843.655 2437.78 849.07 2437.69 854.462 2437.52C894.364 2436.29 934.034 2430.45 972.801 2420.09C972.536 2402.66 971.814 2382.3 970.779 2360.55C970.298 2349.88 959.492 2338.33 958.842 2327.16C958.385 2318.78 968.084 2310.89 967.578 2302.37C964.305 2249.93 960.214 2270.06 957.181 2232.93C956.868 2229.29 956.58 2225.8 956.315 2222.47C954.365 2198.62 953.018 2183.71 953.018 2183.71L965.966 2094.85L986.303 1955.32L984.739 1952.52L982.982 1951.58L875.713 1893.77L869.889 1877.52C868.192 1872.84 865.247 1868.82 861.435 1865.97C857.622 1863.13 853.115 1861.59 848.493 1861.56L777.831 1861.24C774.164 1861.23 770.546 1862.16 767.277 1863.97C764.008 1865.78 761.182 1868.41 759.034 1871.65L739.901 1900.5L613.33 1988.87Z" fill="url(#paint39_linear_20_451)"/>
<path id="Vector_382" d="M1147.02 2183.58C1147 2187.6 1146.96 2193.22 1146.79 2200.19C1146.77 2201.15 1146.75 2202.14 1146.73 2203.15C1146.45 2215.94 1146.18 2226.67 1145.74 2238.6C1145.72 2239.42 1145.69 2240.23 1145.65 2241.05C1145.06 2257.69 1144.13 2277.05 1142.53 2307.72C1139.56 2364.37 1134.37 2315.51 1129.15 2335.38C1128.9 2336.37 1128.63 2337.54 1128.37 2338.92C1127.58 2343.92 1126.25 2348.8 1124.41 2353.46C1121.64 2355.25 1118.8 2356.97 1115.99 2358.7C1107.99 2363.54 1099.87 2368.21 1091.69 2372.64C1087.09 2375.12 1082.47 2377.56 1077.82 2379.9C1077.09 2380.27 1076.37 2380.64 1075.65 2380.98C1051.88 2392.95 1027.39 2403.13 1002.34 2411.44C997.442 2413.05 992.569 2414.61 987.632 2416.06C982.484 2417.62 977.336 2419.09 972.125 2420.47C933.359 2430.83 893.69 2436.68 853.789 2437.91C848.409 2438.09 842.987 2438.16 837.544 2438.16C834.843 2438.16 832.185 2438.14 829.484 2438.11C828.662 2438.11 827.839 2438.09 827.016 2438.07C824.632 2438 822.164 2437.95 819.674 2437.88C771.527 2436.25 723.772 2427.89 677.582 2413L675.62 2412.38C672.582 2411.37 669.565 2410.38 666.548 2409.33C652.623 2404.53 638.903 2399.15 625.386 2393.2C615.07 2388.68 604.873 2383.82 594.795 2378.64C594.703 2378.61 594.617 2378.56 594.542 2378.5C592.432 2377.44 590.301 2376.34 588.191 2375.21C587.917 2375.05 587.622 2374.89 587.326 2374.73C579.457 2370.55 571.672 2366.17 563.971 2361.59C557.494 2345.4 548.38 2342.29 542.726 2328.05C541.08 2323.82 539.891 2319.39 539.182 2314.86C539.182 2314.82 539.161 2314.77 539.161 2314.7C539.751 2323.25 536.65 2299.54 539.14 2314.61C539.118 2314.34 539.097 2314.04 539.076 2313.69C539.013 2312.87 538.929 2311.86 538.802 2310.59C531.566 2233.66 532.03 2145.67 528.886 2073.17C528.675 2068.48 528.457 2064 528.232 2059.71C528.169 2058.28 528.084 2056.88 528 2055.5C528.148 2055.09 528.316 2054.65 528.506 2054.24C528.547 2054.12 528.596 2054.01 528.654 2053.9C528.716 2053.75 528.787 2053.61 528.865 2053.48C528.907 2053.41 528.971 2053.32 529.013 2053.25C529.044 2053.17 529.079 2053.1 529.118 2053.02C529.308 2052.7 529.519 2052.36 529.751 2052.03C529.857 2051.9 529.941 2051.78 530.046 2051.67C530.119 2051.55 530.204 2051.44 530.3 2051.35C530.364 2051.24 530.442 2051.13 530.532 2051.05C530.616 2050.96 530.7 2050.84 530.806 2050.73C530.851 2050.65 530.908 2050.59 530.975 2050.54C531.142 2050.33 531.325 2050.14 531.523 2049.97C532.276 2049.21 533.08 2048.52 533.928 2047.9C534.224 2047.69 534.54 2047.49 534.836 2047.26C536.962 2045.87 539.201 2044.7 541.524 2043.76C542.325 2043.44 543.127 2043.14 543.992 2042.82C544.308 2042.73 544.604 2042.62 544.92 2042.5C545.384 2042.34 545.849 2042.18 546.334 2042.06C548.739 2041.28 551.334 2040.62 554.14 2040C554.477 2039.93 554.836 2039.86 555.195 2039.77C555.701 2039.65 556.229 2039.56 556.756 2039.47C557.473 2039.33 558.212 2039.19 558.95 2039.06C565.216 2037.98 572.326 2037.17 580.174 2036.64C580.913 2036.6 581.651 2036.55 582.39 2036.51C583.255 2036.46 584.12 2036.41 585.006 2036.37C585.744 2036.32 586.504 2036.3 587.263 2036.28C588.002 2036.23 588.761 2036.21 589.542 2036.18C591.672 2036.11 593.867 2036.05 596.103 2036C602.474 2035.86 609.184 2035.91 616.23 2036.07C619.5 2036.16 622.834 2036.25 626.251 2036.41C626.484 2036.41 626.695 2036.44 626.905 2036.44C629.88 2036.55 632.876 2036.69 635.956 2036.87C638.108 2036.99 640.281 2037.1 642.454 2037.24C644.501 2037.38 646.568 2037.52 648.657 2037.68C650.282 2037.77 651.906 2037.91 653.552 2038.02C654.944 2038.14 656.337 2038.25 657.729 2038.34L659.628 2038.48C660.661 2038.57 661.695 2038.64 662.75 2038.76C665.071 2038.96 667.392 2039.17 669.755 2039.38C672.096 2039.61 674.48 2039.84 676.864 2040.07C679.249 2040.3 681.654 2040.55 684.059 2040.8C684.312 2040.82 684.544 2040.85 684.776 2040.87C686.97 2041.12 689.164 2041.35 691.38 2041.61C691.886 2041.65 692.413 2041.7 692.92 2041.77C695.032 2042 697.185 2042.27 699.316 2042.51C699.971 2042.59 700.621 2042.67 701.277 2042.74C702.947 2042.94 704.593 2043.11 706.274 2043.33C708.49 2043.6 710.747 2043.86 712.941 2044.18C714.65 2044.39 716.359 2044.59 718.068 2044.82C720.747 2045.17 723.469 2045.53 726.19 2045.92C727.224 2046.06 728.258 2046.2 729.292 2046.36C737.056 2047.42 744.904 2048.59 752.879 2049.81C764.968 2051.67 777.247 2053.69 789.61 2055.87C801.994 2058.05 814.449 2060.36 826.974 2062.79C830.138 2063.41 833.303 2064.03 836.489 2064.67C837.923 2064.97 839.358 2065.27 840.792 2065.57C843.24 2066.05 845.687 2066.55 848.134 2067.06C850.582 2067.56 853.029 2068.07 855.476 2068.6C858.388 2069.22 861.32 2069.84 864.232 2070.46C883.41 2074.59 902.482 2079 921.09 2083.62C924.149 2084.38 927.208 2085.16 930.246 2085.92C936.322 2087.46 942.342 2089.02 948.306 2090.61C949.951 2091.02 951.576 2091.46 953.2 2091.89C957.251 2093 961.302 2094.1 965.289 2095.22L965.986 2095.43C968.918 2096.21 971.787 2097.02 974.657 2097.84C981.429 2099.77 988.089 2101.72 994.636 2103.7C998.982 2105.01 1003.28 2106.33 1007.53 2107.67C1013.88 2109.67 1020.1 2111.69 1026.16 2113.74C1027.65 2114.24 1029.15 2114.75 1030.63 2115.23C1035.06 2116.73 1039.43 2118.24 1043.67 2119.76C1047.04 2120.95 1050.33 2122.17 1053.58 2123.39C1056.83 2124.61 1060.02 2125.82 1063.14 2127.04C1065.14 2127.82 1067.13 2128.65 1069.11 2129.43C1071.96 2130.58 1074.76 2131.73 1077.51 2132.88C1078.35 2133.22 1079.17 2133.59 1080 2133.93C1080.52 2134.18 1081.03 2134.39 1081.54 2134.62C1082.53 2135.06 1083.54 2135.47 1084.51 2135.91C1085.5 2136.32 1086.47 2136.76 1087.44 2137.22C1088.39 2137.63 1089.36 2138.07 1090.29 2138.5C1091.24 2138.92 1092.17 2139.35 1093.1 2139.81C1093.88 2140.16 1094.64 2140.53 1095.38 2140.89C1096.87 2141.61 1098.37 2142.32 1099.83 2143.05C1100.55 2143.42 1101.26 2143.76 1101.98 2144.13L1103.63 2144.96C1103.86 2145.1 1104.09 2145.21 1104.32 2145.33C1104.85 2145.6 1105.4 2145.9 1105.93 2146.18C1107.15 2146.8 1108.35 2147.46 1109.53 2148.08C1111.12 2148.96 1112.66 2149.83 1114.13 2150.68C1115.63 2151.55 1117.09 2152.43 1118.48 2153.28C1118.71 2153.41 1118.92 2153.55 1119.15 2153.69C1119.47 2153.87 1119.79 2154.08 1120.1 2154.26C1121.18 2154.93 1122.21 2155.62 1123.25 2156.28C1125.27 2157.64 1127.19 2158.97 1128.99 2160.3C1129.39 2160.6 1129.77 2160.9 1130.17 2161.18C1131.5 2162.21 1132.76 2163.22 1133.94 2164.26C1133.94 2164.28 1133.94 2164.28 1133.96 2164.28C1134.37 2164.6 1134.75 2164.95 1135.12 2165.27C1135.44 2165.59 1135.78 2165.86 1136.1 2166.19C1137.19 2167.22 1138.21 2168.21 1139.13 2169.22C1139.44 2169.53 1139.74 2169.86 1140.02 2170.21C1140.14 2170.32 1140.26 2170.44 1140.36 2170.57C1140.78 2171.03 1141.16 2171.49 1141.52 2171.95C1141.57 2172.01 1141.62 2172.08 1141.67 2172.16C1142.17 2172.8 1142.64 2173.45 1143.08 2174.09C1143.29 2174.41 1143.52 2174.73 1143.71 2175.05C1143.96 2175.44 1144.22 2175.86 1144.43 2176.25C1144.62 2176.57 1144.79 2176.91 1144.96 2177.24C1145.4 2178.06 1145.79 2178.93 1146.1 2179.83C1146.33 2180.44 1146.52 2181.07 1146.67 2181.72C1146.83 2182.33 1146.95 2182.95 1147.02 2183.58Z" fill="#2F2E41"/>
<path id="Vector_383" opacity="0.2" d="M1147.05 2183.64C1147.02 2187.66 1146.98 2193.29 1146.81 2200.25C1146.79 2201.21 1146.75 2202.2 1146.73 2203.21C1146.52 2212.98 1146.2 2225.04 1145.76 2238.66C1145.74 2239.49 1145.72 2240.29 1145.67 2241.12C1145.08 2257.75 1144.15 2277.12 1142.55 2307.78C1139.58 2364.43 1134.39 2315.57 1129.18 2335.44C1114.7 2325.75 1098.84 2315.59 1081.87 2305.17C1078.82 2303.28 1075.73 2301.39 1072.61 2299.49C1038.69 2278.88 1000.8 2257.29 961.239 2235.9C959.678 2235.05 958.095 2234.2 956.534 2233.38C865.92 2184.6 767.015 2137.17 686.886 2105.51C671.421 2099.4 656.653 2093.89 642.771 2089.04C613.53 2078.86 588.255 2071.74 568.803 2068.66C548.549 2065.45 534.561 2066.59 528.907 2073.23C528.696 2068.55 528.478 2064.06 528.253 2059.77C528.169 2058.35 528.084 2056.95 528 2055.57C528.13 2055.19 528.299 2054.83 528.463 2054.46C528.487 2054.41 528.503 2054.36 528.527 2054.3C528.568 2054.18 528.617 2054.07 528.675 2053.96C528.737 2053.82 528.808 2053.68 528.886 2053.55C528.955 2053.38 529.04 2053.23 529.139 2053.09C529.329 2052.76 529.54 2052.42 529.772 2052.1C529.943 2051.86 530.126 2051.63 530.321 2051.41C530.385 2051.3 530.464 2051.2 530.553 2051.11C530.637 2051.02 530.722 2050.9 530.827 2050.79C530.872 2050.72 530.929 2050.65 530.996 2050.61C531.163 2050.4 531.346 2050.2 531.544 2050.03C532.297 2049.28 533.101 2048.59 533.95 2047.96C534.245 2047.76 534.561 2047.55 534.857 2047.32C536.983 2045.94 539.222 2044.77 541.545 2043.83C542.346 2043.51 543.148 2043.21 544.013 2042.89C544.33 2042.79 544.625 2042.68 544.941 2042.57C545.406 2042.4 545.87 2042.24 546.355 2042.13C548.76 2041.35 551.355 2040.68 554.161 2040.06C555.005 2039.88 555.891 2039.69 556.777 2039.53C557.494 2039.39 558.233 2039.26 558.971 2039.12C565.237 2038.04 572.347 2037.24 580.195 2036.71C580.934 2036.66 581.672 2036.62 582.411 2036.57C583.276 2036.52 584.141 2036.48 585.027 2036.43C585.765 2036.39 586.525 2036.36 587.284 2036.34C588.023 2036.29 588.782 2036.27 589.563 2036.25C591.694 2036.18 593.888 2036.11 596.124 2036.06C602.496 2035.95 609.205 2035.99 616.251 2036.16C619.521 2036.22 622.855 2036.34 626.273 2036.5C626.484 2036.5 626.716 2036.52 626.927 2036.52C629.901 2036.62 632.918 2036.78 635.977 2036.94C638.129 2037.05 640.302 2037.17 642.475 2037.3C644.522 2037.44 646.589 2037.58 648.678 2037.74C650.303 2037.83 651.927 2037.97 653.573 2038.09C654.965 2038.2 656.358 2038.32 657.75 2038.41C659.417 2038.54 661.084 2038.68 662.771 2038.82C665.092 2039.03 667.413 2039.23 669.776 2039.44C672.118 2039.67 674.502 2039.9 676.886 2040.13C679.27 2040.36 681.675 2040.61 684.08 2040.87C684.333 2040.89 684.565 2040.91 684.797 2040.93C686.991 2041.19 689.186 2041.42 691.401 2041.67C703.68 2043.02 716.317 2044.61 729.313 2046.42C737.077 2047.5 744.939 2048.66 752.9 2049.89C764.989 2051.75 777.268 2053.78 789.631 2055.94C802.016 2058.12 814.47 2060.42 826.995 2062.85C830.159 2063.47 833.324 2064.09 836.51 2064.73C840.392 2065.51 844.274 2066.31 848.156 2067.12C850.603 2067.63 853.05 2068.13 855.498 2068.66C858.409 2069.28 861.342 2069.9 864.253 2070.52C883.431 2074.66 902.503 2079.07 921.111 2083.69C924.17 2084.44 927.229 2085.23 930.268 2085.98C936.344 2087.52 942.363 2089.08 948.327 2090.67C949.973 2091.11 951.597 2091.54 953.222 2091.98C957.294 2093.08 961.323 2094.18 965.311 2095.29V2095.31C965.543 2095.36 965.775 2095.43 966.007 2095.49C968.918 2096.3 971.809 2097.1 974.678 2097.93C981.45 2099.86 988.11 2101.8 994.657 2103.76C999.003 2105.1 1003.31 2106.41 1007.55 2107.74C1013.9 2109.76 1020.12 2111.78 1026.18 2113.8C1027.68 2114.31 1029.17 2114.81 1030.65 2115.3C1035.08 2116.81 1039.43 2118.32 1043.69 2119.82C1047.06 2121.02 1050.36 2122.23 1053.6 2123.45C1056.85 2124.67 1060.04 2125.89 1063.16 2127.1C1065.19 2127.89 1067.17 2128.69 1069.13 2129.47C1072 2130.62 1074.79 2131.77 1077.53 2132.94C1078.37 2133.28 1079.2 2133.65 1080.02 2134C1081.56 2134.64 1083.06 2135.31 1084.53 2135.97C1085.52 2136.39 1086.5 2136.82 1087.47 2137.28C1088.42 2137.69 1089.39 2138.13 1090.31 2138.57C1091.26 2138.98 1092.19 2139.42 1093.12 2139.88C1093.9 2140.22 1094.66 2140.59 1095.4 2140.96C1096.9 2141.67 1098.39 2142.38 1099.85 2143.12C1100.57 2143.48 1101.28 2143.83 1102 2144.2L1103.65 2145.02C1103.88 2145.16 1104.11 2145.28 1104.34 2145.39C1106.14 2146.31 1107.87 2147.23 1109.55 2148.15C1111.14 2149.02 1112.68 2149.89 1114.15 2150.74C1115.91 2151.75 1117.57 2152.74 1119.18 2153.75C1119.49 2153.94 1119.81 2154.14 1120.12 2154.33C1121.2 2154.99 1122.23 2155.68 1123.27 2156.35C1125.29 2157.7 1127.21 2159.04 1129.01 2160.37C1130.78 2161.7 1132.42 2163.01 1133.96 2164.32C1133.96 2164.34 1133.96 2164.34 1133.99 2164.34C1134.72 2164.99 1135.44 2165.63 1136.12 2166.25C1137.21 2167.28 1138.23 2168.27 1139.15 2169.28C1139.47 2169.59 1139.76 2169.92 1140.04 2170.27C1140.16 2170.38 1140.28 2170.5 1140.38 2170.64C1140.82 2171.17 1141.26 2171.69 1141.69 2172.22C1142.19 2172.87 1142.66 2173.51 1143.1 2174.15C1143.31 2174.47 1143.54 2174.8 1143.73 2175.12C1143.99 2175.51 1144.24 2175.92 1144.45 2176.31C1144.64 2176.63 1144.81 2176.98 1144.98 2177.3C1145.43 2178.13 1145.81 2179 1146.12 2179.9C1146.35 2180.51 1146.54 2181.14 1146.69 2181.78C1146.85 2182.39 1146.97 2183.01 1147.05 2183.64V2183.64Z" fill="black"/>
</g>
</g>
<defs>
<linearGradient id="paint0_linear_20_451" x1="830" y1="2170" x2="830" y2="2189.64" gradientUnits="userSpaceOnUse">
<stop stop-color="#312F48"/>
<stop offset="1" stop-color="#181721"/>
</linearGradient>
<linearGradient id="paint1_linear_20_451" x1="1319.42" y1="2120.77" x2="1319.42" y2="2115" gradientUnits="userSpaceOnUse">
<stop stop-color="#100052" stop-opacity="0.8331"/>
<stop offset="0.15625" stop-color="#0F00FF"/>
</linearGradient>
<linearGradient id="paint2_linear_20_451" x1="1302.42" y1="2120.77" x2="1302.42" y2="2115" gradientUnits="userSpaceOnUse">
<stop stop-color="#100052"/>
<stop offset="0.166667" stop-color="#0F00FF"/>
</linearGradient>
<linearGradient id="paint3_linear_20_451" x1="1285.42" y1="2120.77" x2="1285.42" y2="2115" gradientUnits="userSpaceOnUse">
<stop stop-color="#100052"/>
<stop offset="0.161458" stop-color="#0F00FF"/>
</linearGradient>
<linearGradient id="paint4_linear_20_451" x1="1268.42" y1="2120.77" x2="1268.42" y2="2115" gradientUnits="userSpaceOnUse">
<stop stop-color="#100052"/>
<stop offset="0.166667" stop-color="#0F00FF"/>
</linearGradient>
<linearGradient id="paint5_linear_20_451" x1="1251.42" y1="2120.77" x2="1251.42" y2="2115" gradientUnits="userSpaceOnUse">
<stop stop-color="#100052"/>
<stop offset="0.166667" stop-color="#3200FF"/>
</linearGradient>
<linearGradient id="paint6_linear_20_451" x1="1231.42" y1="2120.77" x2="1231.42" y2="2115" gradientUnits="userSpaceOnUse">
<stop stop-color="#100052"/>
<stop offset="0.166667" stop-color="#0F00FF"/>
</linearGradient>
<linearGradient id="paint7_linear_20_451" x1="1319.48" y1="2123.96" x2="1319.48" y2="2129.46" gradientUnits="userSpaceOnUse">
<stop offset="0.825994" stop-color="#0F00FF" stop-opacity="0.833117"/>
<stop offset="1" stop-color="#100052"/>
</linearGradient>
<linearGradient id="paint8_linear_20_451" x1="1302.42" y1="2129.77" x2="1302.42" y2="2124" gradientUnits="userSpaceOnUse">
<stop stop-color="#100052"/>
<stop offset="0.171875" stop-color="#0F00FF"/>
</linearGradient>
<linearGradient id="paint9_linear_20_451" x1="1285.42" y1="2129.77" x2="1285.42" y2="2124" gradientUnits="userSpaceOnUse">
<stop stop-color="#100052"/>
<stop offset="0.166667" stop-color="#3629FF"/>
</linearGradient>
<linearGradient id="paint10_linear_20_451" x1="1268.42" y1="2129.77" x2="1268.42" y2="2124" gradientUnits="userSpaceOnUse">
<stop stop-color="#100052"/>
<stop offset="0.15625" stop-color="#0F00FF"/>
</linearGradient>
<linearGradient id="paint11_linear_20_451" x1="1251.42" y1="2129.77" x2="1251.42" y2="2124" gradientUnits="userSpaceOnUse">
<stop stop-color="#100052"/>
<stop offset="0.182292" stop-color="#0F00FF"/>
</linearGradient>
<linearGradient id="paint12_linear_20_451" x1="1231.42" y1="2129.77" x2="1231.42" y2="2124" gradientUnits="userSpaceOnUse">
<stop stop-color="#100052"/>
<stop offset="0.171875" stop-color="#0F00FF"/>
</linearGradient>
<linearGradient id="paint13_linear_20_451" x1="1213.42" y1="2129.77" x2="1213.42" y2="2124" gradientUnits="userSpaceOnUse">
<stop stop-color="#100052"/>
<stop offset="0.171875" stop-color="#0F00FF"/>
</linearGradient>
<linearGradient id="paint14_linear_20_451" x1="1213.42" y1="2120.77" x2="1213.42" y2="2115" gradientUnits="userSpaceOnUse">
<stop stop-color="#100052"/>
<stop offset="0.171875" stop-color="#0F00FF"/>
</linearGradient>
<linearGradient id="paint15_linear_20_451" x1="1196.42" y1="2120.77" x2="1196.42" y2="2115" gradientUnits="userSpaceOnUse">
<stop stop-color="#100052"/>
<stop offset="0.171875" stop-color="#0F00FF"/>
</linearGradient>
<linearGradient id="paint16_linear_20_451" x1="1196.42" y1="2130.77" x2="1196.42" y2="2125" gradientUnits="userSpaceOnUse">
<stop stop-color="#100052"/>
<stop offset="0.171875" stop-color="#0F00FF"/>
</linearGradient>
<linearGradient id="paint17_linear_20_451" x1="1179.42" y1="2120.77" x2="1179.42" y2="2115" gradientUnits="userSpaceOnUse">
<stop stop-color="#100052"/>
<stop offset="0.171875" stop-color="#0F00FF"/>
</linearGradient>
<linearGradient id="paint18_linear_20_451" x1="1179.42" y1="2130.77" x2="1179.42" y2="2125" gradientUnits="userSpaceOnUse">
<stop stop-color="#100052"/>
<stop offset="0.171875" stop-color="#0F00FF"/>
</linearGradient>
<linearGradient id="paint19_linear_20_451" x1="1162.42" y1="2120.77" x2="1162.42" y2="2115" gradientUnits="userSpaceOnUse">
<stop stop-color="#100052"/>
<stop offset="0.171875" stop-color="#0F00FF"/>
</linearGradient>
<linearGradient id="paint20_linear_20_451" x1="1162.42" y1="2130.77" x2="1162.42" y2="2125" gradientUnits="userSpaceOnUse">
<stop stop-color="#100052"/>
<stop offset="0.171875" stop-color="#0F00FF"/>
</linearGradient>
<linearGradient id="paint21_linear_20_451" x1="1144.42" y1="2120.77" x2="1144.42" y2="2115" gradientUnits="userSpaceOnUse">
<stop stop-color="#100052"/>
<stop offset="0.171875" stop-color="#0F00FF"/>
</linearGradient>
<linearGradient id="paint22_linear_20_451" x1="1144.42" y1="2130.77" x2="1144.42" y2="2125" gradientUnits="userSpaceOnUse">
<stop stop-color="#100052"/>
<stop offset="0.171875" stop-color="#0F00FF"/>
</linearGradient>
<linearGradient id="paint23_linear_20_451" x1="1127.42" y1="2120.77" x2="1127.42" y2="2115" gradientUnits="userSpaceOnUse">
<stop stop-color="#100052"/>
<stop offset="0.171875" stop-color="#0F00FF"/>
</linearGradient>
<linearGradient id="paint24_linear_20_451" x1="1127.42" y1="2130.77" x2="1127.42" y2="2125" gradientUnits="userSpaceOnUse">
<stop stop-color="#100052"/>
<stop offset="0.171875" stop-color="#0F00FF"/>
</linearGradient>
<linearGradient id="paint25_linear_20_451" x1="1110.42" y1="2120.77" x2="1110.42" y2="2115" gradientUnits="userSpaceOnUse">
<stop stop-color="#100052"/>
<stop offset="0.171875" stop-color="#0F00FF"/>
</linearGradient>
<linearGradient id="paint26_linear_20_451" x1="1110.42" y1="2130.77" x2="1110.42" y2="2125" gradientUnits="userSpaceOnUse">
<stop stop-color="#100052"/>
<stop offset="0.171875" stop-color="#0F00FF"/>
</linearGradient>
<linearGradient id="paint27_linear_20_451" x1="1093.42" y1="2120.77" x2="1093.42" y2="2115" gradientUnits="userSpaceOnUse">
<stop stop-color="#100052"/>
<stop offset="0.171875" stop-color="#0F00FF"/>
</linearGradient>
<linearGradient id="paint28_linear_20_451" x1="1093.42" y1="2130.77" x2="1093.42" y2="2125" gradientUnits="userSpaceOnUse">
<stop stop-color="#100052"/>
<stop offset="0.171875" stop-color="#0F00FF"/>
</linearGradient>
<linearGradient id="paint29_linear_20_451" x1="1076.42" y1="2130.77" x2="1076.42" y2="2125" gradientUnits="userSpaceOnUse">
<stop stop-color="#100052"/>
<stop offset="0.171875" stop-color="#0F00FF"/>
</linearGradient>
<linearGradient id="paint30_linear_20_451" x1="1076.42" y1="2120.77" x2="1076.42" y2="2115" gradientUnits="userSpaceOnUse">
<stop stop-color="#100052"/>
<stop offset="0.171875" stop-color="#0F00FF"/>
</linearGradient>
<linearGradient id="paint31_linear_20_451" x1="1167" y1="2081.5" x2="996.5" y2="2224.5" gradientUnits="userSpaceOnUse">
<stop stop-color="#FFB6B6"/>
<stop offset="1" stop-color="#2D2121"/>
</linearGradient>
<linearGradient id="paint32_linear_20_451" x1="463" y1="2143.5" x2="463" y2="2154.5" gradientUnits="userSpaceOnUse">
<stop stop-color="#2F2E41"/>
<stop offset="1" stop-color="#181721"/>
</linearGradient>
<linearGradient id="paint33_linear_20_451" x1="1032.5" y1="2036.5" x2="970.5" y2="2095" gradientUnits="userSpaceOnUse">
<stop stop-color="#272635"/>
<stop offset="1" stop-color="#1F1F2B"/>
</linearGradient>
<linearGradient id="paint34_linear_20_451" x1="944" y1="1663.5" x2="715" y2="1753" gradientUnits="userSpaceOnUse">
<stop stop-color="#2F2E41"/>
<stop offset="1" stop-color="#13131C"/>
</linearGradient>
<linearGradient id="paint35_linear_20_451" x1="411.5" y1="2153" x2="411.5" y2="2151" gradientUnits="userSpaceOnUse">
<stop stop-color="#100052"/>
<stop offset="0.166667" stop-color="#3629FF"/>
</linearGradient>
<linearGradient id="paint36_linear_20_451" x1="1477" y1="2001" x2="1477" y2="1930" gradientUnits="userSpaceOnUse">
<stop stop-color="#FF5C00" stop-opacity="0"/>
<stop offset="1" stop-color="#FF9900"/>
</linearGradient>
<linearGradient id="paint37_linear_20_451" x1="1529.02" y1="2006.25" x2="1530.45" y2="1970.28" gradientUnits="userSpaceOnUse">
<stop stop-color="#FF9900" stop-opacity="0"/>
<stop offset="1" stop-color="#AEAE00"/>
</linearGradient>
<linearGradient id="paint38_linear_20_451" x1="1501.41" y1="2013.69" x2="1513.16" y2="1918.41" gradientUnits="userSpaceOnUse">
<stop stop-color="#FFC600" stop-opacity="0"/>
<stop offset="1" stop-color="#FFA800"/>
</linearGradient>
<linearGradient id="paint39_linear_20_451" x1="1141" y1="1902.5" x2="687" y2="2043.5" gradientUnits="userSpaceOnUse">
<stop stop-color="#3F3D56"/>
<stop offset="0.649191" stop-color="#13131C"/>
</linearGradient>
<clipPath id="clip0_20_451">
<rect width="4340" height="2437" fill="white"/>
</clipPath>
</defs>
</svg>
